<?xml version="1.0" encoding="utf-8"?>
<!-- Generator: Adobe Illustrator 22.0.0, SVG Export Plug-In . SVG Version: 6.00 Build 0)  -->
<svg version="1.1" id="Layer_1" xmlns="http://www.w3.org/2000/svg" xmlns:xlink="http://www.w3.org/1999/xlink" x="0px" y="0px"
	 width="355px" height="355px" viewBox="0 0 355 355" style="enable-background:new 0 0 355 355;" xml:space="preserve">
<style type="text/css">
	.st0{fill:#80A7CE;}
</style>
<g>
	<path class="st0" d="M19,101.5l28.6,15.2c0.3,0.1,0.4,0.1,0.6-0.1l0.5-1c0.1-0.2,0.1-0.4-0.2-0.6L37,108.9l1.9-3.6
		C41.8,99.9,41,94,35,90.8c-6.3-3.3-10.8-0.3-13.7,5.3l-2.5,4.7C18.7,101.2,18.7,101.4,19,101.5z M22.5,97.3
		c2.4-4.5,5.7-7.8,11.6-4.7c5.4,2.9,5.8,7.4,3.3,12l-1.8,3.4l-14.7-7.8L22.5,97.3z"/>
	<path class="st0" d="M60.5,93.5c0.2,0.4,0.4,0.5,0.7,0.2l0.8-0.9c0.2-0.2,0.2-0.3,0.1-0.5l-5.8-10l8.7-10.2l10.6,4.3
		c0.2,0.1,0.5,0,0.7-0.2l0.8-1c0.3-0.3,0.2-0.5-0.2-0.6l-32-12.3c-0.2-0.1-0.4-0.1-0.6,0.1l-0.7,0.8c-0.2,0.2-0.1,0.4,0,0.7
		L60.5,93.5z M63.4,71.5l-8,9.4l-9.4-16.3L63.4,71.5z"/>
	<path class="st0" d="M85.3,46.5l-5.8,0.5c-2.7,0.3-5.3,0-7.3-2.6c-2.3-3.1-0.6-6.7,2.4-8.9c1.3-1,3.2-1.8,5.2-2.4
		c0.3-0.1,0.4-0.2,0.4-0.5l-0.2-0.7c-0.1-0.3-0.2-0.4-0.5-0.3c-1.7,0.3-3.9,1.3-5.8,2.6C69.6,37.3,68,42,70.9,46
		c1.8,2.5,4.8,3.4,8.1,3.1l6.8-0.7c3-0.3,6.1-0.1,8.2,2.8c2.9,4,0.7,8-2.3,10.2c-1.5,1.1-3.8,2.2-5.8,2.8c-0.4,0.1-0.5,0.3-0.4,0.6
		l0.3,0.8c0.1,0.3,0.2,0.5,0.7,0.3c2.3-0.7,4.5-1.9,6.2-3.2c4.4-3.3,6.3-8.2,2.8-12.9C92.9,46.4,89.6,46.2,85.3,46.5z"/>
	<path class="st0" d="M115.6,29.6l-5.7-0.7c-2.7-0.3-5.2-1.1-6.5-4.2c-1.6-3.5,0.9-6.6,4.2-8.1c1.5-0.7,3.5-1.1,5.6-1.2
		c0.3,0,0.5-0.1,0.5-0.4l0-0.7c0-0.3-0.1-0.4-0.5-0.4c-1.7,0-4.1,0.4-6.2,1.3c-4.7,2.1-7.3,6.3-5.3,10.9c1.2,2.8,3.9,4.4,7.3,4.8
		l6.8,0.8c3,0.4,6,1.3,7.4,4.5c2,4.5-1,7.9-4.5,9.5c-1.7,0.8-4.2,1.4-6.3,1.5c-0.4,0-0.6,0.1-0.5,0.5l0.1,0.9c0,0.3,0.1,0.5,0.6,0.5
		c2.4-0.2,4.8-0.8,6.8-1.7c5-2.2,8-6.7,5.6-12C123.1,31.1,119.8,30.2,115.6,29.6z"/>
	<path class="st0" d="M150.9,35.4c0-0.2-0.1-0.3-0.3-0.2l-3.4,0.8l-6.7-29.8l3.3-0.7c0.2,0,0.3-0.1,0.3-0.4l-0.2-0.8
		c0-0.2-0.2-0.3-0.4-0.2L135.1,6c-0.2,0-0.3,0.1-0.2,0.3l0.2,0.8c0.1,0.2,0.2,0.3,0.4,0.2l3.2-0.7l6.7,29.8l-3.1,0.7
		c-0.2,0.1-0.3,0.2-0.2,0.3l0.2,0.8c0.1,0.2,0.2,0.3,0.3,0.2l8.4-1.9c0.2-0.1,0.3-0.2,0.2-0.3L150.9,35.4z"/>
	<path class="st0" d="M178.7,0.1c-7.4,0-12.8,6.5-12.8,17.3c0,10.9,4.7,17,12.3,17c7.1,0,12.8-6.1,12.8-17.3
		C191,6.7,186.5,0.1,178.7,0.1z M178.4,32.7c-6.7,0-10.3-6.2-10.3-15.5c0-8.7,4-15.5,10.5-15.5c6.8,0,10.3,6.2,10.3,15.4
		C188.9,26.3,184.7,32.7,178.4,32.7z"/>
	<path class="st0" d="M235.7,9.9c-0.2-0.1-0.4,0-0.4,0.3l-7.8,27.9l0,0L216.8,5c-0.1-0.3-0.2-0.4-0.5-0.5l-0.8-0.2
		c-0.2-0.1-0.4,0-0.5,0.3l-8.8,31.2c-0.1,0.3,0,0.4,0.3,0.5l0.9,0.2c0.3,0.1,0.4,0.1,0.6-0.3L215.9,8l0,0l10.5,33.5
		c0.1,0.3,0.3,0.5,0.5,0.5l0.8,0.2c0.2,0.1,0.4,0.1,0.5-0.3l8.8-31.3c0.1-0.2,0-0.4-0.2-0.5L235.7,9.9z"/>
	<path class="st0" d="M262.4,60.4c0.1,0.1,0.3,0.2,0.5-0.1l18.7-20.4l0.1,0.1l-9.5,28.3c-0.1,0.2-0.1,0.5,0.2,0.7l0.4,0.4
		c0.2,0.2,0.4,0.2,0.7,0.1l26.3-13.8l0.1,0.1l-17.2,21.5c-0.3,0.4-0.2,0.5,0,0.7l0.8,0.7c0.2,0.2,0.4,0.2,0.6,0l20.5-25.3
		c0.2-0.2,0.1-0.3,0-0.5l-0.8-0.7c-0.1-0.1-0.3-0.2-0.6-0.1l-28.3,14.7l-0.1-0.1l10.2-30.2c0.1-0.4,0-0.6-0.2-0.8l-0.5-0.5
		c-0.3-0.2-0.5-0.2-0.7,0.1l-22,23.8c-0.2,0.2-0.2,0.3,0,0.5L262.4,60.4z"/>
	<path class="st0" d="M294.5,93l8.3,12.6c0.2,0.2,0.4,0.3,0.6,0.2l0.7-0.5c0.2-0.1,0.2-0.3,0.1-0.6l-7.6-11.5l12.6-8.3l6.4,9.7
		c0.2,0.2,0.4,0.3,0.6,0.2l0.7-0.5c0.2-0.1,0.2-0.3,0.1-0.6l-6.4-9.7l11.2-7.4l7.4,11.2c0.1,0.2,0.3,0.3,0.5,0.2l0.9-0.5
		c0.2-0.1,0.2-0.2,0.1-0.4l-8.2-12.4c-0.3-0.5-0.5-0.5-1-0.2l-26.7,17.7C294.3,92.4,294.3,92.6,294.5,93z"/>
	<path class="st0" d="M310.2,120.4l5.3,14.1c0.1,0.3,0.3,0.4,0.5,0.3l0.8-0.3c0.2-0.1,0.3-0.3,0.2-0.5l-4.9-12.9l14.1-5.3l4.1,10.9
		c0.1,0.3,0.3,0.4,0.5,0.3l0.8-0.3c0.2-0.1,0.3-0.3,0.2-0.5l-4.1-10.9l12.5-4.7l4.8,12.6c0.1,0.2,0.2,0.4,0.5,0.3l0.9-0.3
		c0.2-0.1,0.2-0.2,0.2-0.4l-5.3-14c-0.2-0.5-0.4-0.6-0.9-0.4l-29.9,11.4C310.1,119.7,310.1,120,310.2,120.4z"/>
	<path class="st0" d="M351.8,152.6l-31,4.2c-0.3,0-0.4,0.1-0.3,0.5l0.2,1.1c0,0.3,0.2,0.4,0.4,0.3l31-4.2l1.3,9.6
		c0,0.3,0.1,0.5,0.5,0.5l0.8,0c0.3,0,0.4-0.1,0.3-0.5l-2.9-21.2c0-0.2-0.1-0.3-0.3-0.3l-1,0.1c-0.2,0-0.3,0.1-0.3,0.4L351.8,152.6z"
		/>
	<path class="st0" d="M348,183.9c-3-0.3-5.7,1.3-7.7,4.1l-4,5.5c-1.8,2.5-4,4.6-7.5,4.3c-4.9-0.4-6.4-4.7-6.1-8.5
		c0.2-1.9,0.8-4.3,1.8-6.2c0.2-0.3,0.1-0.6-0.2-0.7l-0.8-0.4c-0.3-0.1-0.5-0.1-0.7,0.3c-1,2.2-1.6,4.6-1.8,6.8
		c-0.5,5.5,2,10.2,7.8,10.7c4.3,0.4,6.7-2,9.3-5.4l3.4-4.7c1.6-2.2,3.5-4,6.8-3.7c3.9,0.3,5.4,4,5.1,7.6c-0.1,1.6-0.7,3.6-1.6,5.5
		c-0.1,0.3-0.1,0.5,0.1,0.6l0.6,0.3c0.2,0.1,0.4,0.1,0.6-0.2c0.9-1.5,1.6-3.8,1.8-6.1C355.4,188.7,352.9,184.4,348,183.9z"/>
	<path class="st0" d="M340.5,247.2l-29.2-14c-0.3-0.1-0.4-0.1-0.6,0.2l-0.5,1c-0.1,0.2-0.1,0.4,0.3,0.6l11.7,5.6l-1.8,3.7
		c-2.6,5.5-1.7,11.3,4.4,14.3c6.4,3.1,10.8-0.1,13.5-5.9l2.3-4.8C340.9,247.5,340.8,247.4,340.5,247.2z M337.2,251.5
		c-2.2,4.6-5.4,8-11.4,5.1c-5.5-2.7-6-7.2-3.8-11.9l1.7-3.5l15,7.2L337.2,251.5z"/>
	<path class="st0" d="M320.9,281.2l-25.1-19.9c-0.3-0.3-0.6-0.2-0.8,0.1l-9.3,11.8c-0.2,0.2-0.2,0.4,0,0.6l0.7,0.5
		c0.2,0.2,0.4,0.1,0.6-0.1l8.5-10.8l11.8,9.3L300,282c-0.2,0.2-0.2,0.4,0,0.6l0.6,0.5c0.2,0.2,0.4,0.1,0.6-0.1l7.2-9.2l10.5,8.3
		l-8.4,10.6c-0.2,0.2-0.2,0.4,0,0.6l0.7,0.7c0.2,0.1,0.3,0.1,0.4-0.1l9.3-11.7C321.3,281.7,321.3,281.5,320.9,281.2z"/>
	<path class="st0" d="M274.6,284.8c-0.2-0.2-0.3-0.2-0.5-0.1l-0.9,0.8c-0.2,0.2-0.2,0.4,0,0.6l9,11.1l-4.6,3.7l-15-6.3
		c-0.4-0.1-0.5-0.1-0.8,0.1l-0.9,0.7c-0.3,0.2-0.2,0.5,0.1,0.6l15.3,6.2c-2.9,3.4-3.1,8-0.1,11.8c4,5,8.7,4.8,14,0.5l4.9-3.9
		c0.3-0.2,0.2-0.4,0.1-0.6L274.6,284.8z M289.5,313c-4.3,3.4-8.1,4.3-11.8-0.2c-3.4-4.2-2.2-8.2,1.4-11.1l4-3.2l9.6,12L289.5,313z"
		/>
	<path class="st0" d="M247.8,303.9c-0.2-0.4-0.4-0.4-0.8-0.2l-0.7,0.3c-0.3,0.2-0.4,0.4-0.2,0.8l7.1,14.4l-10.5,5.2
		c-0.3,0.1-0.3,0.3-0.2,0.5l0.4,0.7c0.1,0.2,0.3,0.3,0.6,0.1l10.4-5.1l5.9,12l-12.1,5.9c-0.3,0.1-0.3,0.3-0.3,0.5l0.3,0.9
		c0.1,0.2,0.2,0.3,0.5,0.2l13.4-6.6c0.5-0.3,0.6-0.5,0.4-0.9L247.8,303.9z"/>
	<path class="st0" d="M219.6,315.8c-0.1-0.4-0.3-0.5-0.7-0.4l-14.6,3.6c-0.3,0.1-0.4,0.2-0.3,0.5l0.2,0.8c0.1,0.2,0.2,0.3,0.5,0.3
		l13.4-3.3l3.6,14.6l-11.3,2.8c-0.3,0.1-0.4,0.2-0.3,0.5l0.2,0.8c0.1,0.2,0.2,0.3,0.5,0.3l11.3-2.8l3.2,13l-13.1,3.2
		c-0.2,0.1-0.4,0.2-0.4,0.4l0.1,1c0,0.2,0.2,0.3,0.4,0.2l14.5-3.5c0.6-0.1,0.7-0.3,0.5-0.8L219.6,315.8z"/>
	<path class="st0" d="M176.4,320.6c-3,0-5.7,0.6-8.3,2c-0.3,0.2-0.4,0.3-0.3,0.6l0.3,0.8c0.1,0.3,0.3,0.3,0.5,0.2
		c2.4-1.2,5-1.9,7.4-1.9c8.7-0.1,12,7.9,12.1,15.6c0.1,7.3-3.5,15.3-11.9,15.4c-2.5,0-5-0.6-7.1-1.8c-0.2-0.1-0.4-0.1-0.6,0.2
		l-0.3,0.7c-0.1,0.2-0.1,0.4,0.2,0.6c2.4,1.5,5.2,2,8.1,2c9-0.1,13.9-8.3,13.8-17.3C190.3,328.3,185.8,320.5,176.4,320.6z"/>
	<path class="st0" d="M148.4,350.5l-9.3-2.2l7.2-30.5c0.1-0.3,0-0.4-0.3-0.5l-1.1-0.3c-0.3-0.1-0.4,0.1-0.5,0.3l-7.2,30.5l-9.4-2.2
		c-0.3-0.1-0.5-0.1-0.6,0.3l-0.3,0.8c-0.1,0.3,0,0.4,0.3,0.5l20.8,4.9c0.2,0.1,0.4,0,0.4-0.2l0.2-0.9
		C148.7,350.7,148.7,350.6,148.4,350.5z"/>
	<path class="st0" d="M121.3,309.3l-7.8-3.6c-0.2-0.1-0.3,0-0.4,0.1l-0.3,0.7c-0.1,0.2-0.1,0.3,0.1,0.4l3.1,1.5L103,336l-3.1-1.4
		c-0.2-0.1-0.3-0.1-0.4,0.1l-0.3,0.7c-0.1,0.2,0,0.3,0.2,0.4l7.8,3.7c0.2,0.1,0.3,0.1,0.4-0.1l0.4-0.7c0.1-0.2,0-0.3-0.2-0.4l-3-1.4
		l13-27.6l2.9,1.4c0.2,0.1,0.3,0,0.4-0.1l0.4-0.7C121.5,309.5,121.5,309.4,121.3,309.3z"/>
	<path class="st0" d="M90.6,290.5c-5.6-4.4-13.8-3.1-20.8,5.8c-6.4,8.2-6.9,16.1-0.7,21c5.8,4.5,14.1,2.7,20.7-5.8
		C96.6,302.9,96.7,295.3,90.6,290.5z M88.1,310.3c-5.4,6.9-12.7,9.7-17.8,5.7c-5.4-4.2-4.3-11.2,1.4-18.5c5.6-7.2,12.8-9.7,17.8-5.8
		C94.8,295.9,93.8,303,88.1,310.3z"/>
	<path class="st0" d="M69.4,271.6l-0.5-0.7c-0.2-0.2-0.3-0.3-0.6-0.1l-23.5,17.4l0,0l12.2-32.9c0.1-0.3,0.1-0.5-0.1-0.7l-0.5-0.7
		c-0.1-0.2-0.2-0.3-0.5-0.1l-26.1,19.3c-0.2,0.1-0.3,0.3-0.1,0.5l0.7,1c0.1,0.2,0.3,0.2,0.5,0l23.3-17.3l0,0l-12,32.7
		c-0.1,0.3-0.1,0.5,0.1,0.7l0.5,0.7c0.1,0.2,0.3,0.2,0.5,0.1l26.1-19.3C69.6,272.1,69.6,271.9,69.4,271.6z"/>
</g>
<path class="st0" d="M30.9,248c-10.6-22.1-16-45.8-16-70.5c0-18.2,3-36.1,8.9-53.1l1.7,0.6c-5.8,16.8-8.8,34.5-8.8,52.5
	c0,24.4,5.3,47.9,15.8,69.7L30.9,248z"/>
</svg>
