<?xml version="1.0" encoding="utf-8"?>
<!-- Generator: Adobe Illustrator 23.0.1, SVG Export Plug-In . SVG Version: 6.00 Build 0)  -->
<svg version="1.1" id="Layer_1" xmlns="http://www.w3.org/2000/svg" xmlns:xlink="http://www.w3.org/1999/xlink" x="0px" y="0px"
	 width="968.8px" height="360px" viewBox="0 0 968.8 360" style="enable-background:new 0 0 968.8 360;" xml:space="preserve">
<style type="text/css">
	.st0{fill:#FFFFFF;}
	.st1{fill:#80A8CF;}
</style>
<g>
	<g>
		<g>
			<path class="st0" d="M83.9,150.2h26.6c8.5,0,15.7,0.7,24.9,3.2c9.2,2.5,15.3,8.4,15.3,16.9v0.1c-0.1,12.6-11.7,20.9-34.8,24.5
				l7,0.4c2,0.1,4.4,0.4,7.4,0.8c3.1,0.4,5.7,0.9,7.7,1.6c4.1,1.1,9.4,3.5,12.2,6.5c2.8,2.8,5.1,7.4,5.1,13.2
				c0,10-5.5,17.2-14.4,20.7c-8.6,3.3-17.3,4.8-27.4,4.8c-3.3,0-8.2,0-14.8-0.1H84c4.5-1.2,6.8-7.6,6.8-19.4c0-3.5,0-8.6,0.1-15.4
				c0.1-6.8,0.1-12,0.1-15.3c0-22.6-0.8-35.2-2.4-37.9C87.7,152.6,86.1,151.1,83.9,150.2z M104.2,194.5c21-0.7,31.5-8.4,31.5-23.3
				v-0.1c0-6.9-3.3-12-7.4-14.6c-2-1.3-4.7-2.4-7.7-3.1c-6-1.6-10.1-1.9-16.1-1.9c0,0.4,0,5.3-0.1,14.9c-0.1,9.6-0.1,18-0.1,25.1
				V194.5z M130.4,199.8c-5.7-3.1-11.4-4-19.5-4c-3.1,0-5.2,0-6.6,0.1c0,22.7,0.3,35.8,0.9,38.8c1.1,4.3,2,6.1,4.7,6.6
				c8.8,0,16-1.9,21.4-5.5c5.5-3.7,8.2-9.7,8.2-18.1C139.5,208.8,136.3,202.6,130.4,199.8z"/>
			<path class="st0" d="M238.1,242.7h-68.3c2.8-0.8,4.7-2.4,5.6-4.7c0.7-1.2,1.3-5.3,2-12.4v-12.5v-33.6c0-14-0.7-22.3-2-25
				c-1.1-2.3-2.7-3.7-4.9-4.4h29c-2,0.5-3.5,1.2-4.5,2.1c-2.5,2-3.7,11-3.7,27.3v45.5c0.1,4.3,0.5,7.6,0.9,9.8
				c0.8,4.1,2.8,6.4,6,6.5c2,0.1,4.9,0.1,8.5,0.1c7.3,0,13.4-0.5,18.5-1.7c6.2-2.1,10.2-5.7,12-10.9h1.1V242.7z"/>
			<path class="st0" d="M284,150.2c-1.2,0.4-2.1,0.8-2.8,1.5c-1.2,0.9-2.1,1.9-2.7,3.1c-0.9,1.9-1.5,6-1.9,12.5
				c-0.1,3.3-0.1,7.4-0.1,12.4v28.7c0,10.1,2.1,18.3,6.2,24.6c4.3,6.2,10.2,9.4,18.1,9.4c10.6,0,18.6-3.3,23.8-9.8
				c5.3-6.6,8-15.3,8-25.9v-30.1c0-4.9-0.1-8.6-0.5-11.3c-0.5-4.3-0.7-5.9-1.9-9c-1.2-3.3-3.3-5.3-6.9-6h20.9
				c-1.5,0.4-2.7,0.8-3.6,1.5c-3.9,2.3-5.9,10.6-5.9,24.9v29.8c0,23-11.8,37.1-35.2,37.8c-23.8,0-36.4-12.5-36.4-36.4v-32.3
				c0-13-1.2-20.6-3.7-22.9c-1.2-1.1-2.9-1.9-4.9-2.3H284z"/>
			<path class="st0" d="M355.1,242.7c1.7-0.4,3.5-1.1,4.9-2.3c2.5-2.1,3.9-11.2,3.9-27.3v-37.9c0-13.2-1.3-20.7-3.9-23
				c-1.2-0.9-2.7-1.7-4.4-2.1h67V164h-0.8c-1.5-4.7-4.4-7.7-8.8-9.3c-5.6-2.1-17.6-3.2-35.8-3.2v48.4h2h3.1h8.5
				c5.5,0,9.2-0.8,11.2-2.3c2-1.5,3.2-5.1,3.7-10.6h0.7v26.7h-0.7c-0.1-4.9-1.6-8-3.3-9.7c-0.9-0.9-2.4-1.6-4.4-2
				c-3.9-0.7-6.6-0.8-14-0.8h-4.8h-2v23.7c0.1,4.3,0.5,7.4,1.2,9.7c0.5,2.7,3.3,6.5,6.9,6.6c1.6,0.1,4.3,0.1,8.1,0.1
				c20.5,0,31.6-4.4,33.4-13.2h0.8v14.5H355.1z"/>
			<path class="st0" d="M568.7,150.2c-1.3,0.4-2.3,0.8-2.9,1.2c-4,2.5-6,10.8-6,24.9v67.1h-3.3l-61.7-81.6v54.5
				c0,14,1.9,22.3,5.7,25c1.1,0.7,2.3,1.1,3.7,1.5h-21c1.2-0.3,2.4-0.8,3.6-1.5c3.9-2.7,5.8-11,5.8-25v-40v-4.8c0.1-2.5,0.1-4,0-4.7
				c0-0.7-0.1-2-0.3-3.9c-0.1-2-0.3-3.2-0.7-3.9c-0.5-1.2-1.7-4.5-3.5-5.6c-1.6-1.1-4.1-2.7-7.4-3.3H503l54.4,73l0.4-45.1v-1.9
				c0-14-2-22.3-6-24.9c-0.7-0.4-1.7-0.8-3.1-1.2H568.7z"/>
			<path class="st0" d="M666.3,230.5c-8.9,9-21,13.6-36.2,13.6c-15,0-27.3-4.5-36.7-13.7c-9.3-9.2-14-20.7-14-34.8
				s4.5-25.4,13.4-33.9c9-8.5,21.1-12.8,36.4-12.8c15.2,0,27.4,4.3,36.6,12.9c9.3,8.5,14,19.8,14,33.9
				C679.8,209.9,675.3,221.5,666.3,230.5z M595,196.3c0,23.3,9.4,46.4,35.1,46.4c25.7,0,34.2-23.4,34.2-46.1
				c0-23.3-9.7-46.4-35-46.4C603.5,150.2,595,173.3,595,196.3z"/>
			<path class="st0" d="M687.8,150.2h77.8v14.4h-0.9c-0.7-6-5.3-9.8-12.8-11.3c-3.6-0.8-6.8-1.3-9.3-1.5c-2.5-0.1-5.5-0.3-9-0.3
				v61.7c0,4.9,0.1,9.2,0.3,12.5c0.4,6.2,1.1,10.4,2.1,12.4c1.2,2.3,3.3,3.9,6.4,4.7h-30.8c1.2-0.3,2.3-0.7,3.2-1.3
				c1.2-0.8,2.1-1.9,2.9-3.3c1.6-2.4,2.4-10.1,2.4-23v-1.9v-61.7c-3.1,0-5.5,0-7.3,0.1c-1.7,0-4.3,0.3-7.3,0.7
				c-3.1,0.4-5.6,1.1-7.6,2c-3.7,1.6-8,5.1-9.2,9.8h-0.8V150.2z"/>
			<path class="st0" d="M780,242.7c1.7-0.4,3.5-1.1,4.9-2.3c2.5-2.1,3.9-11.2,3.9-27.3v-37.9c0-13.2-1.3-20.7-3.9-23
				c-1.2-0.9-2.7-1.7-4.4-2.1h67V164h-0.8c-1.5-4.7-4.4-7.7-8.8-9.3c-5.6-2.1-17.6-3.2-35.8-3.2v48.4h2h3.1h8.5
				c5.5,0,9.2-0.8,11.2-2.3c2-1.5,3.2-5.1,3.7-10.6h0.7v26.7h-0.7c-0.1-4.9-1.6-8-3.3-9.7c-0.9-0.9-2.4-1.6-4.4-2
				c-3.9-0.7-6.6-0.8-14-0.8h-4.8h-2v23.7c0.1,4.3,0.5,7.4,1.2,9.7c0.5,2.7,3.3,6.5,6.9,6.6c1.6,0.1,4.3,0.1,8.1,0.1
				c20.5,0,31.6-4.4,33.4-13.2h0.8v14.5H780z"/>
		</g>
		<g>
			<path class="st1" d="M123.6,8.8c1.2-0.9,8.1-8.8,9.4-8.8c1.6,0,2.1,2.5,2.8,3.2c0,3-0.4,4.4-1.2,4.4V7.4c-1.6,0-4.2,4.1-4.9,4.1
				c-0.2,0-0.5-0.4-0.7-0.4c-0.7,0-2.1,2.8-3,2.8l-0.5-0.2c0,0.2-0.4,0.2-0.4,0c0,0.5-1.2,3.4-1.4,3.4h-0.7
				c-0.4,1.1-1.2,1.8-2.6,2.3c-0.5-0.2-0.9,0-0.9,0.7c-0.7,1.4-6,6-6,6.2s0,0.4,0.2,0.4c-3.4,4.8-5.7,7.6-6.5,8.5
				c-0.7,0-1.2,2.1-1.8,2.1c-0.2,0.5-0.4,0.7-0.5,0.7c0,0.9-0.9,2.3-1.6,2.1l-0.2,0.4c0,0.2,0,0.2-0.2,0.4c0.2,0.9-0.7,2.1-2.3,3.7
				C98.9,46.1,98,47.2,98,48c0,0.2,0,0.2,0.2,0.2h1.9c0.4-0.2,0.9-0.2,1.6-0.2c0.5,0,1.6,0.2,2.3,0.2c0.9,0,3.2-0.7,4.1-0.7h0.4
				c0.2,0.2,0.2,0.4,0.4,0.4h1.4c0.5,0.7,0.9,1.1,1.1,1.1c0-0.5-1.4,0.2,0.4-1.6c0.7-0.2,1.2-0.4,1.4-0.4c0.2,0,1.6,0.5,1.8,0.5h1.9
				l0.2,0.4c0,0.2,0,0.4-0.2,0.5c0.2-0.2,0.5-0.4,0.9-0.9l0.5-0.7l0.7,0.4c0.2,0,0.9-0.4,1.1-0.4l2.5,1.2c0-0.5,0.2-0.7,0.5-0.7
				l0.2,0.2c0.7,0.4,0.9-0.2,1.4-0.2h0.4c0,1.2,2.1-0.5,2.8-0.5c0.2,0,0.4,0.4,0.5,0.4h0.4c0.2,0,0.4-0.2,1.2-0.2v0.2
				c0.2,0.2,0.2,0.2,0.4,0h0.5c0.2,0,0.4,0,0.5-0.2c0.2,0.2,0.4,0.2,0.5,0.2c0.5,0,1.8-1.1,2.5-1.1h1.9l0.7,0.4
				c0.2,0,0.4-0.2,0.4-0.4h0.9c0.9,0,1.6,0.2,1.9,0.4c0.7,0,1.1,0.2,1.2,0.2c0.5,0,1.1-0.2,1.4-0.5c0.2,0.2,1.1,0.2,2.3,0.2
				c0,0.2,0.2,0.2,0.7,0.2l0.2-0.2h0.2c0.5,0,1.8,0.4,2.3,0.4l0.4-0.2c0.5,0,0.7,0.4,0.9,0.4c0.2,0.2,0.4,0,0.5-0.2l0.7-0.4
				c0.2,0,0.5-0.2,0.7-0.2c0.5,0,1.2,0.9,1.4,0.9c0.5,0,0.9-0.2,1.1-0.4h2.6l0.2-0.2h1.8h0.5c0.2,0.2,0.5,0.2,1.2,0.2
				c0.2,0,1.1-0.4,1.6-0.4c0.9,0,1.6,0.5,1.8,1.8c0-0.2,0.4-0.7,0.9-1.4h1.2l0.4,0.4c0.5,0.2,1.8-0.5,2.3-0.5h0.2
				c0.2,0.2,0.2,0.2,0.4,0l0.2-0.2c0.2,0,0.4,0,0.4,0c1.2,0.9,2.5,1.1,4.4,0.2c0.5,0,1.6,0.9,2.3,0.9c1.1-0.4,3-1.4,3-1.1l0.2,0.2
				c0.2,0,0.9-0.4,1.1-0.4s0.4,0.2,0.4,0.4v0.9c-0.2,0-0.4,0.2-0.4,0.5c0,0.2,0.2,0.4,0.5,0.4v-0.7c0.2,0,0.2-0.2,0.4-0.5l0.2-0.4
				l0.2,0.2c0.9,0.5,0.7-0.4,1.2-0.4h1.2c0.5,0,0.2,1.1,0.9,1.1c0.5,0,0.4-0.9,0.5-0.9l0.5,0.2c0.2-0.2,0.4-0.2,0.4-0.4
				c0.7,0,2.1,0.5,2.8,0.5c0,0.2,0.2,0.4,0.5,0.4c0.2,0,0.4-0.2,0.5-0.4h0.4c1.6,0,3.4,0.2,5.5,0.2c0.4-0.7,0.9,0,1.6,0l-0.2-0.2
				v-0.5l0.2,0.2h0.4c0.4,0,0.7,0,0.9-0.2h0.5c0.7,0,1.2,0.2,1.6,0.5c0.5-0.2,0.7-0.4,0.9-0.4c0.7,0,1.6,0.7,2.1,0.7
				c0.4,0,0.5-0.2,0.7-0.5c0.2,0,0.7,0.5,0.9,0.5c0.7,0,1.9-0.5,2.5-0.5h0.4c0.5,0,1.6-0.5,1.8-0.5l0.2,0.4l0.2,0.2
				c0.2,0,0.2,0,0.4-0.2h0.4c0.2,0,0.4,0,0.5,0.2c0.2,0,0.4,0,0.5-0.2l0.4-0.2c1.2,0,3.5,0.9,4.4,0.9c0.9,0,1.2-0.7,1.9,0
				c0.2,0,0.5-0.5,0.7-0.5v0.4c0.2,0.2,0.4,0.4,0.5,0.4v-0.4c0.2,0,1.4,0.4,1.9,0.4v-0.2c0.2-0.2,0.2-0.2,0.4-0.2
				c0.2,0.2,0.4,0.2,0.7,0.2c0.2,0,0.4,0,0.5-0.2c0.4,0.4,0.7,0.5,1.2,0.5c0.2-0.2,0.4-0.2,0.5-0.2h0.5h0.4c0.5,0,1.2,0.2,1.4,0.2
				l0.9-0.2c0.5,0.5,1.2,0.5,1.8,0l0.2,0.2h0.2l0.2-0.2c0.2,0,0.4,0.2,0.5,0.4h2.3c2.6,0,4.6,0.4,5.8,1.1c1.4,0,1.9,0.5,3,0.9
				c0.2,0,0.2,0,0.4-0.2c0.9,0,1.1,0.7,1.6,0.2h0.9c0.2,0.2,0.2,0.2,0.4,0.2l0.2-0.2c0.2-0.2,0.2-0.2,0.4-0.2c2.1,0,3.9,1.9,3.9,3.9
				c0,0.5-0.4,0.9-1.1,0.9c-0.2,0-0.5-0.2-0.9-0.5c-0.2,0.2-0.2,0.2-0.2,0.4l0.2,0.2c0.2,0,0.2,0,0.2,0.2c0,0.5-0.7,0.9-2.3,0.9
				c-0.2,0-0.5-0.4-0.7-0.4l-0.2,0.2c-0.2,0.2-0.2,0.2-0.4,0.2c-0.9,0-2.5-0.9-2.5-1.6c0-0.2,0.5-1.2,0.5-1.4
				c-0.9,0-3.2-0.7-3.7-0.7c-0.2,0-0.9,0.2-0.9,0.2c0,0.2-0.2,0.2-0.7,0.2c-0.4,0-0.5,0-0.5-0.2l-4.2-1.1c-0.2,0-0.2-0.2-0.2-0.4
				c-0.4,0.4-0.7,0.5-1.1,0.5h-1.6c-0.5,0-1.1-0.5-1.2-0.5h-0.4c-0.5,0-1.1-0.7-1.2-0.7c-0.5,0-0.9,0.2-1.1,0.7l-1.6-0.2h-0.5
				c-0.5,0-0.7-0.4-0.9-0.4v0.4h-2.3l-2.1-0.7c-0.5,0-1.2,0.5-1.4,0.5c-0.5,0-1.4-0.4-1.6-0.4c-0.5,0-0.9,0.2-1.4,0.2
				c-0.5-0.5-1.2-0.5-2.3,0h-1.2l-0.2-0.2c-0.2-0.2-0.2-0.2-0.4-0.2h-4.4c-0.2,0-0.5-0.5-0.7-0.5c-0.5,0-1.6,0.7-2.3,0.7
				c-0.2,0-1.1-0.4-1.6-0.4c-1.2,0.5-1.4,0-2.1,0l-0.4-0.2c-0.2,0-0.7,0.5-1.2,0.5l-0.4-0.2c-0.2,0-0.2,0-0.2-0.2l-0.7,0.2l-0.9,0.2
				c-0.2,0-0.7-0.4-0.9-0.4h-0.2l-0.2,0.2c-0.2,0-0.5-0.5-1.1-0.5c-0.2,0.4-0.7,0.5-1.6,0.5h-0.4c-0.2,0-0.2-0.5-0.4-0.5l-1.1,0.5
				h-0.4h-2.3H186c-0.2,0.2-0.2,0.2-0.4,0.2c-0.5,0-1.2-0.2-2.1-0.4l-0.4-0.2c-0.2,0.2-0.5,0.4-0.7,0.4h-2.3c-0.2,0-0.4,0-0.5-0.2
				l-0.4-0.4c-1.1,0-0.9,0.7-1.8,0.4h-0.2c-0.2,0-0.4,0-0.5,0.2l-0.4,0.2c-0.7,0-2.8-0.9-3-0.9c-0.2,0.2-0.2,0.2-0.2,0.4
				c0.2,0.2,0.2,0.2,0.4,0.2h-3.2c-0.2,0-0.9-0.2-1.9-0.5c-1.2-0.2-3,0.9-2.8,0c-0.2,0-0.4,0-0.5,0.2l-0.4,0.4
				c-0.2,0-1.1-0.9-1.2-0.9l-0.4,0.7c0,0.2-0.2,0.2-0.4,0.2c-0.5,0-0.9-0.2-1.4-0.4c0-0.4,0-0.5,0.2-0.7c0.2,0,0.2-0.2,0.2-0.4
				c-0.2-0.4-0.2-0.5-0.4-0.5c-0.2,0-0.4,0.4-0.4,1.1c0,0.2-0.9,0.4-1.6,0.5l-0.5,0.2c-0.7-0.4-1.4-0.5-1.9-0.5l-1.4,0.7
				c-0.9-0.5-1.6-0.5-2.1-0.2c-0.2-0.2-0.4-0.2-0.5-0.2l-0.4-0.2h-0.4c-0.2,0-0.7,0.4-1.2,0.4h-0.5c-0.9,0-2.8,0.2-3.5,0.2l-0.2-0.2
				c0-0.2,0-0.2-0.2-0.2H145l-0.2,0.2c-0.2,0.2-0.2,0.2-0.4,0.2c-0.2,0-0.4-0.2-0.4-0.4c0,0,1.1-0.5,0.4-0.5c-0.5,0-2.8,1.6-2.8,0.7
				l-0.4-0.2h-1.4c-0.2,0-0.2,0-0.2,0l-0.4,0.2l-0.2-0.2c-0.2-0.2-0.5-0.2-0.5,0l-0.2,0.2c-0.2,0.2-0.5,0.2-1.1,0.2
				c-0.7,0-1.8-0.4-2.5-0.4c-0.9,0-0.5,0.4-1.2,0.4c-0.2,0-1.2-0.4-1.8-0.4h-1.6l-0.2,0.2c-0.2,0-0.4,0-0.4-0.2l-0.9,0.4l-0.9-0.2
				c-0.5,0-1.2,0.4-1.4,0.4c-0.5,0-1.6-0.5-1.8-0.5l-0.5,0.4c-0.4,0.2-0.5,0.2-0.7,0.2c-0.5,0-1.1-0.2-1.2-0.2l-0.9-0.5
				c-0.2,0-0.4,0.2-0.4,0.7h-2.1l-0.5,0.2c-0.2,0-0.2-0.2-0.2-0.4l-0.5,0.4c-0.2,0.2-0.5,0.2-1.1,0.2c-0.5,0-1.8-0.4-2.3-0.4
				l-0.4,0.2l-0.4-0.4l-0.2,0.4l-0.4,0.2c-0.5,0-0.9-0.7-1.4-0.7l-0.2,0.2l0.4,0.2c0,0.5-0.5,0.7-1.8,0.7c-0.2,0-0.7-0.5-1.2-0.5
				l-1.1,0.7l-1.1,0.2h-1.1c-0.9,0-1.2-0.4-1.4-0.9c-1.1,1.1-0.9-0.7-1.8-0.2l0.7,0.7c0,0.2,0,0.2-0.2,0.4h-1.6l-0.4-0.2l-0.2,0.2
				c-0.5,0.5-1.4,0.7-2.6,0.7c-0.2,0-0.9-0.2-1.1-0.2c-1.2,0-2.1,0.4-2.8,0.9c-1.4,0.9-2.8,5.1-3,5.3c-0.7,0.7-2.3,1.6-2.3,2.3
				l0.2,0.2c0,1.2-1.2,3-3.5,5.3c-1.9,4.1-3.2,6-3.7,6c-0.2,0-0.5-0.2-1.1-0.2l0.5,1.4c0,0.2-0.7,1.2-0.9,1.2l-0.5-0.5
				c-0.2,0-0.4,0-0.5,0.2c0,0.2,0.5,0.7,0.5,0.9c0,0.9-2.6,3-2.6,3.5l0.2,0.4c0,1.2-3,3.5-3,4.4c0,0.2,0,0.4,0.2,0.4
				c-0.2,0.9-0.9,2.1-2.3,3.5c-0.9,1.1-2.1,3.2-3.7,6.5c-1.6,3.4-2.5,5.8-3,7.4c-0.2,0.2-1.4,0.4-1.4,0.9c0,0.2,0,0.2,0,0.2l0.2,0.4
				l-0.2,0.2l-0.2,0.2c0,0.2-0.7,1.1-0.7,1.6l0.2,0.7c0,0.2-0.5,0.7-0.5,0.9l0.2,0.2c0,1.2-2.5,3.7-2.5,3.9v1.4
				c0,0.7-1.6,2.6-1.6,2.8h0.2c0,0.5-0.9,2.5-1.1,2.5c0,0.5-0.2,0.9-0.4,1.1v1.4c0,0.5-1.4,1.6-1.4,2.1c0.5,0.4,0.4,1.9-0.4,3.7
				c0,0.7,0.7,3,0.7,3.7l-0.5,0.5v0.9c0.2,0.2,0.4,0.5,0.4,1.1c-0.5,1.1-0.4,1.1,0.4,2.3c0,0.2,0,0.2-0.2,0.4v0.4
				c0,0.7,1.8,1.8,2.3,2.3h1.2l0.2,0.4l0.2,0.4l0.7-0.7c0.2,0,0.2,0.9,0.7,0.9c0.2,0,1.1-1.1,1.6-1.1c0.2,0,0.7,0.4,1.2,0.4
				c0.7,0,1.1-1.2,1.8-1.2l0.4,0.4c0.5,0,1.1-0.9,1.6-0.9c0.2,0,0.4,0.2,0.5,0.2c0.5,0,1.6-1.4,1.8-1.4c0.2-0.2,0.4-0.2,0.5-0.2
				c0.2,0,0.2,0.2,0.4,0.2c0.4-0.2,1.2-0.9,2.5-2.1c0.2,0,0.2,0,0.4,0.2h0.2c0.4-0.7,0.5-1.1,0.7-1.1c0.4,0,0.5,0.4,0.5,0.9v0.4
				c0.2,0,0.4-0.2,0.4-0.5c0-0.5-0.2-0.7-0.4-0.7c0.2-0.5,0.9-1.1,2.3-1.6v-0.4v-0.5l-0.2-0.2c0.7-0.2,1.8-1.1,2.3-1.1
				c0.2-0.2,0.4,0,0.5,0.2l0.2,0.2c-0.7-1.2,8.5-9,9.5-10.2c0.4-0.9,2.3-2.6,5.7-5.7c3.4-3,5.3-4.6,5.7-4.6c0.2,0,1.6-1.2,2.3-1.2
				c0.7,0,1.1,0.2,1.1,0.7c0,0.4-0.2,0.5-0.5,0.7c0,0,0,0-0.2,0l-0.2,0.2c-0.9,1.6-1.6,2.6-1.8,2.8c-1.2,0.5-1.9,0.9-1.9,1.1
				c-0.2,1.4-3.5,3.4-3.7,3.9c-0.7,1.2-1.8,3.5-1.9,4.2c-0.4,0-0.5-0.4-0.5-0.9c-0.9,0-1.8,0.9-3,2.8c-1.1,1.9-1.9,3-2.8,3
				c0,0.4,0,0.5-0.2,0.5c-0.4,0-0.5-0.2-0.5-0.4l0.4-0.4c-0.2,0-0.7-0.9-0.9-0.9c-0.2,0-0.4,0.2-0.4,0.4c0,0.2,0.5,0.5,0.5,1.1
				c0,1.6-3.9,4.8-3.9,4.9c-0.7-0.2-1.9,1.9-2.5,1.9c-0.4,0-0.5,0-0.4-0.2c-0.5,0.2-1.4,0.9-2.6,2.5c-1.2,1.6-2.3,2.3-3,2.3
				c-0.7,0-0.4-1.8-0.9-1.8c-1.4,0,0.4,1.2,0.4,1.8c0,1.2-4.2,3-5.8,3l-0.2-0.2l-0.2,0.2c-0.2,0-0.4,0-0.5-0.2
				c-0.2,0-0.9,1.1-1.4,1.1c-0.2,0-0.2,0-0.4-0.2c-0.4,0.2-1.1,0.7-1.1,0.5l-0.4-0.2c-0.2,0-0.7,0.4-1.2,0.4c-0.4,0-0.5-0.2-0.7-0.4
				c-0.2,0.7-0.5,1.1-1.4,1.1c-0.5,0-0.7-0.5-0.9-0.5c-0.2,0.2-0.2,0.2-0.2,0.4h-0.9c-0.4,0-0.5-0.2-0.5-0.4l-0.4,0.2
				c-0.5,0-3.5-1.4-3.5-1.6c0.2,0,0.4,0,0.4-0.2c-1.8-1.8-4.1-3.5-4.1-6.2c0-0.2,0-0.2,0.2-0.4l0.2-0.2l-0.2-0.2l-0.2,0.2v-0.4V130
				l-0.2-0.4c0.9-1.1,1.1-1.4,0.4-2.1l0.2-0.2v-0.2l-0.7-0.4v-1.6c0.4-0.2,0.5-0.4,0.5-0.7c0-0.2,0-0.4-0.2-0.5
				c0-0.7,1.4-2.1,1.4-2.3c0-0.2-0.4-0.4-0.4-0.9c0-1.8,0.4-2.6,1.1-2.6l0.4,0.4c0.2,0,0.4-0.9,0.9-1.1c0.5-0.9,0.4-1.1,0.2-1.1
				l-0.4,0.4h-0.2v-0.7l0.9-0.5c0-0.2-0.4-0.7-0.4-0.9c0-0.5,0.5-1.9,0.5-2.6c0.5-0.2,0.5-1.1,0.7-1.2l0.4-0.9
				c1.2-3.9,1.4-2.1,1.8-2.1v-2.3c0-0.2,1.1-1.2,1.1-1.4v-1.6c0-0.2,0.5,0.2,0.5-0.4c0-0.5,0.2-0.9,0.7-0.9v-0.5l-0.2-0.2
				c0-0.7,0.2-1.1,0.5-1.1c0,0.2,0,0.2,0.2,0.4c0.4,0,0.5-0.4,0.5-1.2c-0.2-0.2-0.2-0.2-0.2-0.4c0.9-0.9,1.9-2.6,3-4.9
				c1.2-2.3,2.1-3.9,2.8-4.8c-0.2-0.2,0-0.4,0.2-0.5l0.4-0.5C68,87.3,68,87.3,68,87.1c0-0.4,0.7-1.2,2.1-2.6
				c-0.2-0.7,1.6-3.5,2.3-4.1c0.2-0.7,0.9-1.9,2.1-3.5c1.4-1.8,2.1-2.8,2.1-3l-0.2-0.2c0-0.7,1.1-2.5,3.2-5.5c2.3-3,3.4-4.9,3.4-5.5
				c0.4-0.9,3.2-5.8,4.1-5.8h0.2l0.2,0.2c0.2,0,0.2,0,0.2-0.2c-0.2-1.2,2.3-3.4,2.3-4.2c-0.2-0.5-0.5-0.7-1.1-0.7l-0.7,0.4
				c-0.2,0-0.9-0.4-1.1-0.4c-0.7,0-1.8,0.4-2.3,0.4c-0.4,0-0.5,0-0.7-0.2l-0.4,0.2c-0.2,0.2-0.9,0.4-1.9,0.4l-0.2-0.2l-0.2-0.2
				c-1.8,0-2.6,0.2-2.6,0.7h-0.7c-0.2,0-0.7,0.2-1.2,0.2c-0.2,0-0.7-0.5-0.9-0.5c-0.5-0.2-1.4,1.1-1.6,0.4L74,52.8l-0.4,0.4H73
				c-0.2,0-2.1,0.9-2.6,0.9h-0.5l-0.2-0.2l-0.2,0.5c-0.7,0-0.9-0.4-0.7-0.9c-0.2-0.2-0.5-0.2-0.9-0.2c-0.9,0.5-1.4,0.9-1.4,1.1
				c0.4,0,0.5,0.2,0.5,0.4s-0.7,0.4-0.7-0.2c0,0.2-0.2,0.4-0.4,0.4c-0.2,0-0.7-0.5-0.9-0.5h-1.2l-0.9,0.7c-0.5,0.4-1.1,0.5-1.4,0.5
				c-0.2,0-0.5-0.2-0.7-0.5l-0.4-0.5c-0.2,0-0.4,0.2-0.5,0.4l0.2,0.5c-0.4,0.2-0.7,0.2-1.2,0.2c-0.5-0.4-1.1-0.2-2.6,0.7L56,56
				c-0.2,0-0.4,0.4-0.5,0.4c-0.4,0-0.5-0.2-0.5-0.5L54.6,56c0,0.2,0.4,0.4,0.4,0.5c-0.2,0-0.5,0-0.7-0.2c-0.2-0.2-0.4-0.2-0.5-0.2
				c-1.6,0-6.5,1.2-8.5,1.2c-0.2,0-0.9-0.2-1.1-0.2c-1.2,0-4.4,0.9-5.7,0.9l-0.2-0.2c-1.4,0-2.8,0.2-4.4,0.7c-0.2,0-0.2-0.2-0.4-0.2
				l-0.4,0.2L33,58.5c-0.2-0.2-0.4-0.2-0.5-0.2c0.2,0.2,0.2,0.4,0,0.4L32.3,59l-0.5-0.4c-0.2,0.2-0.2,0.2-0.2,0.4
				c-0.2,0.7-0.9,1.1-2.1,1.1c0.2,0.4,0.2,0.5-0.2,0.5c-0.2-0.2-0.2-0.2-0.4-0.2h-0.2c-0.2,0.2-0.5,0.2-0.7,0.2h-0.7
				c0-0.5-0.2-0.7-0.4-0.7s-0.2,0.2-0.2,0.4l-0.2,0.4c0-0.2-0.2-0.2-0.5-0.2h-1.2c-0.2,0-0.4,0.4-0.5,0.4c-0.2-0.2-0.4-0.2-0.5-0.2
				c0,0.4-0.2,0.5-0.4,0.5l-0.4-0.5c-0.2,0.2-0.2,0.4-0.4,0.4c-0.4,0-0.5-0.2-0.5-0.4c-0.2,0-0.4,0-0.5,0.2h-0.2l-0.4-0.4l-0.5,0.4
				c-0.2,0-0.2,0-0.4-0.2c-0.5,0.9-1.9,1.4-3.9,1.4c-0.5,0-1.6-0.2-1.8-0.2c-0.5,0-1.9,0.5-2.5,0.5h-0.9L11,62.2
				c-0.7,0.4-1.1,0.5-1.2,0.5H9.2H8.8c0,0.4-0.4,0.5-0.9,0.5H7.8c-0.2-0.2-0.2-0.2-0.4-0.2c-0.5,0-1.4,0.7-1.9,0.7
				c-0.2,0-0.9-0.2-1.1-0.2c-0.4,0-0.7,0-0.9,0.2c-0.4,0-0.7-0.2-0.9-0.7H1.1c-0.7,0-1.1-0.9-1.1-2.6c0-0.2,0-0.4,0.2-0.4h0.7
				l0.9-0.9c0-0.2,0-0.4,0.2-0.5h0.5c0.2,0,0.2,0,0.2,0L3,58.8c0.2,0,0.2-0.5,0.7-0.7v0.4c0.9,0,2.3-0.7,3.2-0.7v-0.4h0.7
				c-0.7-0.7,6.4-1.2,6.9-1.2c0.2-0.2,0.2-0.2,0.4-0.2h0.7h0.7h0.2c0.2,0,0.2,0,0.4-0.2H17c0.2,0,0.2,0,0.2,0.2l0.4,0.2
				c1.1-0.7,1.6-0.9,2.3-0.4l0.7-0.2c0.2,0,1.1,0.2,1.6,0.2l0.5-0.4c0.4-0.2,0.7-0.4,0.9-0.4c1.1,0,1.8,0.4,2.1,0.9
				c0.2,0,0.4-0.5,0.5-0.5l0.7,0.7c0.2,0,0.5-0.7,1.1-0.7c0.2,0,0.2,0,0.2,0l0.4,0.2l0.4-0.2c0.2,0,0.2,0,0.2-0.2l0.7,0.2
				c0,0.7,0.2,1.1,0.7,1.1c0.2,0,0.4-0.2,0.4-0.4c0-0.2-0.9-0.2-0.9-0.7c0-0.4,0.4-0.5,0.9-0.5c0.2,0,0.9,0.5,1.1,0.4l0.2-0.2
				c0.2-0.2,0.5-0.4,0.7-0.4c0.2,0.2,0.4,0.2,0.5,0.2c0.5,0,2.3-0.4,3-0.4l0.2,0.4c1.4,0,1.1-1.2,3-0.2c0.2,0,1.2-0.4,1.8-0.4
				c0.2,0,0.7,0.4,1.2,0.4c0.7,0,2.6-0.7,3.9-0.7h1.2c0.2-0.2,0.4-0.2,0.5-0.2c1.2,0.4,1.8,0.4,1.8-0.2h1.1c0.2-0.2,0.9-0.2,1.8-0.2
				c0.2,0.2,0.9,0.4,1.1-0.2c0.5-0.2,1.4-0.2,2.3-0.2l0.9,0.5c0.5,0,1.9-1.2,2.8-1.2c0.2,0,0.9,0.7,1.4,0.7v-0.5
				c0.7,0,1.2-0.4,1.4-0.4h0.4c0.2,0,0,0.4,0.5,0.4c0.5,0,1.4-0.2,2.8-0.5c0.5-0.5,1.6-0.7,3.5-0.7l0.4,0.2c0.7,0,2.3-1.1,3.2-1.1
				c0.2,0,0.5,0.4,0.7,0.4c0.5,0.2,1.9-0.5,2.5-0.5c0.2,0,0.7,0.4,0.9,0.4c0.5,0,1.9-0.9,2.1-0.9l0.4,0.2c0.2,0,0.9-0.2,1.1-0.2
				c0.4,0,0.7,0,0.9,0.2c0.2,0,0.9-0.4,1.1-0.4h0.9c0.5,0,0.9,0.2,1.4,0.4c0.5-0.5,1.2-0.7,2.5-0.7h0.9h0.4c0.2,0.4,0.5,0.5,0.9,0.5
				c0.2,0,0.5-0.5,1.1-0.5l1.1,0.4c0.5-0.4,1.6-1.6,3.4-3.9c1.8-2.3,2.6-3.7,2.8-4.2c0.2-0.7,2.5-2.3,2.5-2.5l-0.2-0.4
				c0-0.5,1.2-1.9,1.8-2.1V36c0.7-0.7,3-4.9,3.9-4.9c0.2,0.2,0.2,0.2,0.4,0.2c0-0.5,0.7-1.4,0.7-1.6c0.2,0,1.2-1.9,2.1-3.5
				c1.2-2.3,1.1-0.7,1.8-0.7c0.5-0.5,0.7-2.1,0.9-2.6c1.9-3,3.9-5.3,5.8-6.9l1.6,1.1v-1.4c-0.2-0.2-0.4-0.2-0.9-0.4
				c0-0.5,2.6-2.8,2.8-3.4l1.9-1.9l0.7-0.7V9L123.6,8.8z M1.2,60.4H0.9c0,0.4,0.2,0.5,0.4,0.7V60.4z M7.8,57.8v-0.2V57.8z
				 M14.5,57.4h0.2c0,0.4,0,0.5,0.2,0.5C14.8,57.8,14.7,57.6,14.5,57.4z M15.5,60.2h0.2v-0.2L15.5,60.2z M19.3,59.5v-0.2V59.5z
				 M23.1,59.5c0.2,0,0.4-0.2,0.4-0.4C23.3,59.2,23.1,59.4,23.1,59.5z M26,57.8v-0.2V57.8z M27,55.5h-0.4H27z M27.7,57.4
				c0-0.5-0.2-0.9-0.7-0.9c0,0.9,0.2,1.2,0.5,1.2L27.7,57.4z M27.9,59c-0.2,0-0.2,0.2-0.2,0.4c0.4,0,1.4,1.4,1.4,0.4
				c-0.2,0-0.5-0.4-1.1-0.5L27.9,59z M29.5,57.2h-0.2H29.5z M32,57.2h0.4H32z M33,58.5v-0.2V58.5z M52.1,124.5
				c0,0.5,0.4,0.7,0.9,0.7C53,124.7,52.6,124.5,52.1,124.5z M53.5,135.7v-0.2V135.7z M56.2,55.8v-0.2V55.8z M56.2,130.7h0.2v-0.2
				L56.2,130.7z M56.9,137.1l0.2-0.4c-0.2-0.2-0.4-0.5-0.4-0.9h-0.2c-0.2,0-0.2,0.2-0.2,0.7C56.3,136.9,56.5,137.1,56.9,137.1z
				 M59.4,139.5c0-0.5-0.9-1.6-0.9-1.8c-0.5,0.4-0.2,0.9,0.4,1.6L59.4,139.5z M59.4,112.7c0,0.2,0,0.2,0.2,0.2l0.4-0.2l-0.2-0.2
				L59.4,112.7z M59.7,106.3c0,0.9,0.7,0.9,0.7,0.4C60.1,106.5,59.9,106.3,59.7,106.3z M59.9,54.6v-0.2V54.6z M59.9,108.6v-0.2
				V108.6z M60.8,139.2V139V139.2z M60.9,107.6v-0.2V107.6z M62.2,137.1v-0.2V137.1z M65.9,96.8h0.2H65.9z M66.6,136.9l0.5,0.5v-0.4
				c0-0.2-0.2-0.4-0.4-0.4L66.6,136.9z M68.2,137.2v-0.5l0.2-0.2c0.2-0.2,0.2-0.2,0.2-0.4c-0.7,0-1.1,0.2-1.1,0.7
				C67.8,137.1,68,137.2,68.2,137.2z M70.3,136.2c0,0.2,0,0.2,0.2,0.2l0.2-0.2l-0.2-0.2L70.3,136.2z M70.8,86.6H71v-0.2L70.8,86.6z
				 M71.2,137.1v-0.2V137.1z M76.1,130.9c-0.2-0.2-0.2-0.2-0.2,0H76.1z M76.5,131.9h0.2l-0.2-0.2V131.9z M77.9,130v-0.4V130z
				 M79.8,50.9l0.4-0.2c0-0.2-0.2-0.2-0.4-0.2V50.9z M89,59.9h0.2H89z M89.9,122.4v-0.2V122.4z M91,51.4l0.2,0.2h0.4v-0.2H91z
				 M91.5,50.5c0-0.2,0-0.2,0.2-0.4h-0.2V50.5z M92,115.5v-0.2V115.5z M93.3,117.8v-0.2V117.8z M93.8,116.8v-0.2V116.8z M95.7,112.9
				c0.2,0,0.2,0,0.4-0.2h-0.2L95.7,112.9z M96.4,113.6l0.2,0.2c0-0.2,0-0.2-0.2-0.4V113.6z M99.1,110.2v-0.4c-0.2,0-0.4,0-0.4,0.2
				C98.9,110.2,98.9,110.2,99.1,110.2z M101.6,107.9c0,0.2,0.2,0.4,0.5,0.4c-0.2-0.4-0.2-0.5-0.4-0.5L101.6,107.9z M103.2,105.8
				v-0.2V105.8z M103.2,106.9h0.4l-0.4-0.2V106.9z M103.5,38.5h-0.2c0,0.2,0,0.2,0.2,0.4V38.5z M105.3,35.5
				c-0.2-0.9-0.5-1.2-0.9-1.2c-0.5,0-0.5,0.9,0.4,1.6C105.1,35.9,105.3,35.7,105.3,35.5z M107.2,32.7c0-0.2-0.2-0.5-0.7-1.2
				C106.5,32.3,106.7,32.7,107.2,32.7z M109.5,49.1c-0.2,0-0.4,0-0.4-0.2c-0.2,0-0.2,0-0.4,0.2C109.3,49.6,109.5,49.6,109.5,49.1z
				 M109.3,30.6h-0.2H109.3z M110.4,28.6h0.2l-0.2-0.2V28.6z M111.3,27.6h0.2v-0.2h-0.2V27.6z M118,48.2c-0.2,0-0.2,0.4,0,0.4V48.2z
				 M118.9,19.3c0-0.2-0.2-0.4-0.4-0.4C118.5,19.1,118.7,19.3,118.9,19.3z M119.1,15.9v0.2V15.9z M121.9,15.5h-0.4
				c0,0.2,0.2,0.2,0.4,0.2V15.5z M121.5,48.8c0.2-0.2,0.4-0.4,0.4-0.5C121.7,48.2,121.5,48.4,121.5,48.8z M123.1,12
				c0.4,0,0.5-0.2,0.5-0.7l-0.2-0.2c-0.5,0-0.7,0.2-0.7,0.5L123.1,12z M123.5,13.1h0.2c0-0.2-0.2-0.4-0.5-0.4L123.5,13.1z M124,12.4
				c0.2,0,0.2,0,0.4-0.2l0.2-0.4v-0.5c-0.5,0.5-0.7,0.7-0.7,0.9L124,12.4z M123.8,13.6v-0.2V13.6z M125.4,11.7v-0.2V11.7z
				 M128.8,7.6V7.4V7.6z M132.1,48.4l0.2-0.2c0-0.2-0.2-0.2-0.4-0.2L132.1,48.4z M133,5.5h-0.2c0,0.2,0,0.4,0.2,0.4V5.5z M133.5,5.7
				V5.5h-0.2L133.5,5.7z M158.4,47.7c-0.2,0-0.2,0-0.2,0.2L158.4,47.7z M176.5,47.5v-0.2V47.5z M178.8,46.6v-0.2V46.6z M183.2,48.2
				c0-0.4,0-0.5-0.2-0.5c-0.2,0-0.4,0.2-0.4,0.4C182.8,48.2,183,48.2,183.2,48.2z M183.9,48.6l-0.4-0.2c-0.7,0-0.7,0.4,0,0.4
				C183.7,48.8,183.9,48.8,183.9,48.6z M184.1,47v-0.2V47z M184.1,47.5v-0.2V47.5z M184.2,48.2h0.2c0-0.2,0-0.2-0.2-0.2V48.2z
				 M184.6,48.9v-0.2V48.9z M198.5,47.7h-0.2H198.5z M200.1,47.5v-0.2V47.5z M202.2,48.6l0.2-0.5c-0.2,0-0.4,0-0.4,0.2L202.2,48.6z
				 M210.4,49.5h0.2l-0.2-0.2V49.5z M212.1,49.5v-0.2V49.5z M226.4,48.6v-0.4V48.6z M230.2,48.6c0-0.4-0.2-0.5-0.4-0.5
				C229.8,48.2,230,48.4,230.2,48.6z M246.9,50.9h0.2v-0.2L246.9,50.9z M247.5,53.5c0,0.2,0.2,0.2,0.4,0.2l-0.2-0.4L247.5,53.5z
				 M247.6,52.6v-0.2V52.6z"/>
			<path class="st1" d="M148,41.5l2.6-4.8l0.7-1.4c0.2,0,0.5,0.2,1.4,0.4L154,36c1.9,1.2,3,2.3,3,2.8c0,0.2,0,0.5-0.2,0.7
				c-0.4,0.7,0.2,0.9,0.2,1.9v0.4c-0.4,0-1.1,0.5-1.9,1.4c-1.6,0.7-2.3,1.6-2.3,2.5c-1.2,0.9-2.3,3-3.2,3.9c-0.2,0-0.2,0.2-0.2,0.4
				s0.4,0.7,0.4,0.9c-0.2,0.4-1.2,1.2-3.2,2.5c-1.8,1.2-2.8,2.5-3.4,3.7c-0.2,0.7-2.8,2.5-2.8,2.6l0.2,0.4c0.2,0.2,0.2,0.4,0.4,0.4
				c-0.2,0.2-0.2,0.4-0.2,0.5h-0.7l-0.4,0.4c-3.4,3.7-5.1,5.7-5.7,5.8c0,0.7-0.9,1.6-0.9,2.1l0.2,0.2v0.4c-0.4,0.4-0.5,0.5-0.7,0.5
				l-0.2-0.2l-0.2-0.2c-0.9,0-1.6,0.9-2.1,2.8c-0.2,0.7-2.1,0.9-2.1,1.4h0.4c0.2-0.2,0.2-0.2,0.4-0.2c0,0.4-1.2,1.9-3.7,4.8
				c-2.3,2.6-3.7,4.2-4.2,4.4c-0.2,0.9-0.7,2.1-1.9,3.9c-1.1,1.6-1.6,2.6-1.6,2.8c-1.9,1.9-3.4,4.1-3.9,6l-0.2,0.2
				c-0.2,0.2-0.2,0.4-0.4,0.4l-1.2,0.2v1.2c-1.8,1.2-3.9,3.9-6.2,7.9c-2.3,4.1-4.1,6.7-5.3,7.9v0.9l-0.4,0.2
				c-1.4,0.9-1.9,2.8-2.6,3.5c0.2,1.2-2.3,4.2-2.3,5.7c0,0.2,0.4,0.9,0.4,1.1c-0.2,0.2-0.4,0.5-0.4,0.7c0,0.2,0.2,0.7,0.7,1.6
				c0.7-0.2,0.5-1.2,1.1-1.4c1.6-1.1,4.8-4.1,9.5-9c4.8-4.9,8.1-7.6,10.1-8.1c0.7-0.9,6.4-8.3,7.8-7.6l1.1-1.8
				c0.5-0.9,3-2.3,3.7-3.2c0.7-0.4,1.8-1.4,3.4-3.4c1.6-1.9,2.8-3,3.7-3h1.4c2.3,0,2.5,0,2.5,1.6c0,0.5,0.4,1.2,0.4,1.8l-0.2,0.2
				l-0.2,0.2c0,0.5,0.5,0.9,0.5,1.1c0,1.9-2.8,5.1-3,6.4c-0.2,0.4-0.5,0.5-0.7,0.5l-0.2-0.2H136c0,0.5,0.5,0.7,0.5,0.9
				c0,0.9-0.5,2.3-1.6,3.9c-0.9,1.6-1.4,2.5-1.4,2.6c0.2,1.6-1.2,5.1-1.2,6.5c0,0.7,0.9,2.5,0.9,3.2c0,0.2-0.4,1.4-0.4,1.9v0.4
				c0.5,0.7,1.1,1.2,1.2,1.8c0,0.2,0,0.4-0.2,0.5c0,1.4,1.9,1.8,3,2.3c0.2,0,1.8,0.2,2.3,0.2c1.6,0,3.9-0.5,7.1-1.8
				c3.2-1.2,5.5-1.8,6.7-1.8c0.5,0,1.6-1.4,2.3-1.2c0.9-0.9,3.5-2.5,7.8-4.6c1.9-0.9,6.2-4.8,7.4-5.5l1.6-1.1
				c1.2-0.5,1.9-1.1,2.1-1.6l1.9-1.1c1.2-0.7,2.1-1.1,2.6-1.1c0.5,0,0.7,0.2,0.7,0.5c0,1.8-2.6,3.4-3.5,4.8
				c-3.9,3.9-8.3,7.4-13.1,10.8c-2.8,1.6-8.1,3.5-10.6,5.8c-1.6,0-2.6,0.4-3.4,1.1c-0.2-0.2-0.5-0.2-0.7-0.2c-0.7,0-1.1,0-1.2,0.2
				l-1.9,0.9h-0.4c-0.2,0-0.7-0.2-0.9-0.2c-0.2,0-0.4,0.2-0.5,0.5l-0.2,0.4h-0.5c-0.5,0-1.9-0.2-2.5-0.2l-0.4,0.2
				c-0.5,0.4-2.1,0-2.5,0c-0.9,0-3-0.5-3.7-0.5l-0.7-0.9l-1.9-0.9c-0.9-0.9-3.7-4.4-3.7-5.7c0-0.5,0.4-1.1,0.4-1.2
				c0-0.2-0.7-1.8-0.7-2.3v-0.7c0,0.4,0,0.5,0.2,0.5c0-0.2,0-0.5,0.2-0.9l-0.2-0.4c0-0.5,0.2-1.4,0.2-1.6v-0.9c-0.7-0.7-0.7-1.6,0-3
				v-0.5c0.2-0.5,0.5-1.6,1.4-3.2c0.9-1.6,1.2-2.6,1.2-2.8v-1.4c0-0.2-0.5-1.9-0.5-2.1c-0.9,0-3.4,3.2-4.1,3.2v-0.4h-0.4v0.4
				c0.2,0.4,0.2,0.5,0.4,0.5c0,0.5-0.4,0.9-1.1,1.2c-1.9,0.4-2.8,1.6-2.8,3.9c-1.4,1.9-7.1,5.3-8.5,8.3l-5.3,4.2
				c-3,2.6-4.8,3.9-5.1,4.1c0,0.2,0.4,0.7,0.4,0.9c0,0.4-0.2,0.5-0.5,0.7c-2.3,0.5-5.3,4.9-7.2,5.7h-0.5c-0.5,0-1.6,0.2-2.3,0.2
				c-1.9,0-4.8-1.4-4.8-3v-3.4c0-0.9,0.5-2.1,1.8-3.7l1.8-2.5c0.2-1.4,1.1-3.4,2.8-6c1.6-2.6,2.6-4.2,2.8-5.1
				c0.5-0.5,2.8-3.4,6.5-8.5c3.7-5.1,5.7-7.9,5.8-8.3c0.9-0.9,1.4-1.6,1.4-2.1c0-0.2-0.2-0.4-0.7-0.9c0-0.4,0.4-0.9,0.9-1.4
				c0.2,0.2,0.5,0.2,0.7,0.2c0.5,0,0.9-0.2,0.9-0.5c0-0.2-0.5-0.4-0.5-0.5c0-0.4,1.2-2.3,3.5-5.7c2.3-3.5,3.7-5.3,3.9-5.5
				c0-0.5,0.5-1.1,0.5-1.2c0-1.6,0.7-2.5,2.1-2.5l2.3-4.2c1.2-0.5,2.8-3.9,4.2-4.6c0.5-1.2,2.1-3.5,4.8-6.7c2.6-3.4,4.2-4.9,5.1-4.9
				c0.2,0,0.4-0.2,0.5-0.4C138.8,51.6,142,47.5,148,41.5z M115.5,111.1h0.2v-0.2L115.5,111.1z M127.5,67.5v-0.2V67.5z M128.8,65.5
				v-0.2V65.5z M130,98.7l0.2-0.4c-0.2,0-0.2,0-0.4,0.2L130,98.7z M138.5,96.1h-0.2H138.5z"/>
			<path class="st1" d="M204.9,76.3c2.8,0,4.2,0.7,4.2,2.1l-0.2,0.4c0,0.7,1.2,1.8,1.2,2.5c0,0.5-0.5,1.2-0.5,1.8l0.2,0.4
				c0,0.5-0.9,1.1-0.7,1.8l-1.6,1.4c0.2,1.6-3.4,3.2-3.4,3.9v0.2c0.2,0.2,0.2,0.2,0.2,0.4c0,0.9-1.6,2.5-2.3,2.5l-1.2,1.4
				c-0.2,1.6-0.5,2.8-1.4,3.5c-1.4,0.7-2.1,1.2-2.1,1.4l0.2,0.4l-0.7,0.5c0.2,0.7-1.4,2.5-4.8,5.3c-3.2,2.8-5.3,4.4-6.2,4.6
				c-0.2,0.2-0.4,0.7-0.4,1.2c-0.5,0.5-3,1.9-3,3.4v0.2c-0.2,0-1.1-0.5-1.6-0.5c-0.4,0-0.5,0.5-0.5,1.8v0.2l0.7,1.9
				c0.2,0.9,4.1,2.3,4.2,2.8c0.4,0.9,1.1,1.6,1.9,2.1h0.2c0.2,0,0.4,0,0.4-0.2v-0.7h2.5v-0.2l0.2,0.2c0.7,0,1.4,0.2,1.9,0.2
				c0.4,0,0.5,0,0.7-0.2c0.2,0,0.4,0,0.7-0.2l0.5-0.2c0.5,0,1.2,0.4,1.8,0.4l0.2-0.2c0.2-0.2,0.2-0.2,0.4-0.2c0.2,0,0.4,0,0.5,0.2
				l1.1-0.4c0.2,0,0.9,0.4,1.1,0.4c0.5,0,1.2-1.2,1.8-1.2c0.2,0,0.7,0.4,0.9,0.4c0.5,0,2.5-1.2,3.2-1.2c-0.2,0-0.4,0-0.4-0.2
				c0-1.4,0.7-0.4,1.1-0.4l1.1-0.5c2.5-0.9,6.7-2.6,12.9-5.3c6.2-2.6,9.4-4.6,9.4-5.5c1.1-0.2,3-1.4,5.8-3.4c2.8-1.9,4.4-3,4.9-3
				c0.2,0,0.4,0,0.5,0.2l0.4,0.2c0.5,0,0.9-0.2,0.9-0.5c0-1.6,0.5-2.3,1.4-2.3h0.2l1.6,0.9v0.4c0,0.9-0.2,1.4-0.5,1.4H243l-0.4,0.2
				c-0.9,0.4-0.4,0.9-0.4,1.2v0.4c0,0.4-0.2,0.5-0.5,0.5h-1.6l-0.4,0.2v0.9l-1.9,1.1c-0.2,0-0.4,0-0.5-0.2h-0.2
				c-1.1,0-0.5,1.1-0.9,1.4c-0.7,0.5-1.8,1.9-1.9,1.9l-1.8,0.9c-2.1,1.2-3.7,1.9-4.9,2.3c0,0.4-1.1,1.1-3,2.3
				c-1.9,1.2-3.4,1.8-4.2,1.8l-0.4,0.2c0,0.2,0,0.2,0,0.2l0.2,0.4l-1.8,1.1h-0.2l-0.5-0.2h-0.2c-0.9,0-4.2,2.1-5.1,2.1l-0.9,0.9
				c-1.4,0.2-4.4,2.3-4.9,2.3c-0.7,0-1.1-0.2-1.1-0.7c0-0.2,0-0.2,0-0.2l0.2-0.4l-0.5-0.5c-0.2,0.2-0.4,0.5-0.4,0.9h0.2
				c0,0.4,0,0.5,0.2,0.5c0,0.2-1.6,1.2-2.1,1.2c-0.2,0-0.7-0.2-0.9-0.2c-1.2,0-3.9,1.6-5.1,1.6h-0.4l-0.2-0.2
				c-0.7,0-2.1,0.5-2.8,0.5c-0.2,0-1.1-0.2-1.2-0.2H192c-0.2,0-0.7,0.5-0.9,0.5c-1.2,0-4.1-0.9-4.9-0.9h-0.7h-1.2
				c-0.5,0-1.6-0.7-3.5-2.1c-1.9-1.4-3-2.5-3.5-3l-0.2-0.4l0.2-0.2c0.2-0.2,0.2-0.2,0.2-0.4c0-0.5-2.3-1.6-2.3-1.8
				c0-1.6-0.2-2.3-0.4-2.3l-0.4,0.2c-0.2-0.2-0.4-0.5-0.4-0.7c0-0.2,0.5-1.1,0.5-1.6v-0.4c-0.2-0.2-0.2-0.2-0.2-0.4
				c0-0.2,0.2-0.5,0.5-0.7c0.9-0.5,0.9-0.5,0-1.1c-2.1-0.2,0.7-2.3,1.1-3.4c-0.4-0.2-0.5-0.4-0.5-0.7c0-1.4,2.6-4.8,2.6-6
				c0-0.2-0.2-0.5-0.2-0.7c0-0.7,2.5-0.5,2.6-1.1c-0.5-0.4-0.9-0.9-0.9-1.4c0-0.5,2.6-1.8,2.1-2.6c0-0.2-0.5-0.4-0.5-0.5
				c0-0.2,0.2-0.4,0.4-0.4c1.1,0,2.1-0.9,3.2-2.8c1.1-1.9,2.1-2.8,3.4-2.8c0.2,0,0.4,0,0.4,0.2c0.2-0.2,0.2-0.4,0.2-0.5v-0.4
				c0,0,0,0,0,0.2l-0.2-0.5c-0.4-1.2,6.9-5.8,7.6-7.4C200.5,77.7,203.5,76.3,204.9,76.3z M176.3,109.3v-0.2V109.3z M178.2,110.9H178
				H178.2z M190.9,91.9l0.2,0.2c0,0.4-1.1,1.8-3.2,4.1c-2.1,2.3-3.4,3.4-3.5,3.5v0.7c-0.9,0.5-3.7,4.1-3.7,4.9
				c0.4,0.5,0.2,1.2-0.4,1.8l0.2,0.2v0.4c0,1.6-1.9,1.9-0.5,2.8c0.7,0.5,0.4,1.2,4.1-2.5c4.1-3.7,9.4-9.4,10.1-10.1
				c1.9-1.4,3.4-2.6,4.1-3.7l0.2-1.8c0-0.2,0-0.2,0.2-0.2h0.2l0.2,0.2c0.2,0,0.2-0.2,0.2-0.4c0.2-0.5,0.5-0.7,0.7-0.5
				c0-1.6,1.9-2.3,2.5-3.5c0-0.9,0-1.6,0.2-1.9c1.2-0.5,1.9-1.1,1.9-1.4c0-0.7-1.2-1.6-0.5-1.6h0.2c0.2,0.2,0.2,0.2,0.4,0.2
				c0.5-0.2,0.7-0.4,0.9-0.5c0-0.2-0.2-0.4-0.5-0.4c-1.2,0-2.5,1.9-3,1.9h-1.2c-0.2,0-0.5,0.9-0.7,0.9c-2.3,0.7-4.6,2.1-6.5,4.2
				C192,90.3,189.9,91.7,190.9,91.9z M185.5,93.6v-0.2V93.6z M185.8,95c0.2,0,0.2-0.4,0-0.4c-0.2,0-0.4,0.2-0.4,0.5L185.8,95z
				 M187.2,92h-0.2v0.2h0.2V92z M187.9,91.1h-0.2v0.2h0.2V91.1z M188.5,106.2l0.2-0.2c0-0.4-0.2-0.5-0.4-0.5s-0.2,0.2-0.2,0.4
				C188.1,106.2,188.3,106.3,188.5,106.2z M191.8,102.1l0.2,0.2c0.4,0,0.5-0.2,0.7-0.5c-0.2-0.2-0.4-0.4-0.5-0.4
				c-0.4,0-0.5,0.2-0.5,0.7H191.8z M193.9,100.5c0-0.5-0.2-0.7-0.5-0.7c-0.2,0-0.4,1.1,0.4,1.1L193.9,100.5z M196.1,83.2
				c0.2,0,0.4-0.2,0.4-0.5l-0.4-0.2c-0.4,0-0.5,0-0.5,0.2C195.5,83,195.7,83.2,196.1,83.2z M197.8,84.4c0,0.2,0,0.4,0.2,0.4
				C198,84.6,198,84.4,197.8,84.4z M198.5,80.5l-0.2,0.4c0,0.4,0.2,0.5,0.7,0.5l0.7-0.2c0.4,0,0.5,0,0.7-0.2c0-0.5,0-0.7-0.2-0.7
				h-0.9l-0.2,0.4c0,0.2,0,0.2-0.2,0.2C198.9,80.7,198.7,80.5,198.5,80.5z M199.2,93.1v0.4c0,0.2,0.7,0.4,0.7-0.5
				c0-0.2-0.2-0.4-0.4-0.4h-0.2L199.2,93.1z M201,79.5l0.5,0.5h0.2c0.2,0,0.4-0.4,0.4-1.1c-0.7,0-1.1,0.2-1.1,0.4V79.5z M202.1,78.8
				V79l0.2-0.2H202.1z M202.4,82.5c0.9,0,0.9-1.1,0.2-1.1c-0.2,0-0.4,0.2-0.4,0.7C202.2,82.3,202.2,82.5,202.4,82.5z M204,79.3
				c0.4,0.4,0,0.5,0,0.7c0,0.4,0.2,0.5,0.7,0.5c0-0.2,0-0.2-0.2-0.4l-0.2-0.4l0.2-0.2v-0.5l-0.4-0.4c-0.2,0-0.4,0.2-0.4,0.4
				L204,79.3z M205.4,86.9c0-0.4-0.2-0.5-0.4-0.5C205.1,86.7,205.2,86.9,205.4,86.9z M206.3,85c0.2,0,0.5-0.2,1.1-0.7
				c-0.2-0.2-0.4-0.5-0.4-0.7h-0.2c-0.5,0-0.9,0.2-0.9,0.7C206,84.6,206.1,84.8,206.3,85z"/>
		</g>
		<g>
			<path class="st1" d="M672.4,128c0.3,0.2,0.3,0.3,0.2,0.6l-0.5,1c-0.1,0.2-0.3,0.3-0.5,0.1l-27.7-14.7c-0.3-0.2-0.3-0.3-0.2-0.6
				l2.4-4.6c2.9-5.4,7.2-8.4,13.3-5.2c5.8,3.1,6.5,8.7,3.7,14l-1.8,3.5L672.4,128z M661.7,118.1c2.3-4.4,2-8.8-3.2-11.6
				c-5.7-3-8.9,0.1-11.2,4.5l-1.5,2.9l14.2,7.5L661.7,118.1z"/>
			<path class="st1" d="M667.6,78.6c-0.2-0.3-0.2-0.4,0-0.6l0.6-0.7c0.2-0.2,0.3-0.2,0.6-0.1l31,11.9c0.3,0.1,0.4,0.3,0.2,0.6
				l-0.8,0.9c-0.2,0.2-0.4,0.3-0.7,0.2l-10.2-4.1l-8.4,9.9l5.6,9.7c0.1,0.2,0.1,0.3-0.1,0.5l-0.7,0.9c-0.2,0.3-0.4,0.2-0.6-0.2
				L667.6,78.6z M686.8,86L670,79.4l9.1,15.7L686.8,86z"/>
			<path class="st1" d="M715.1,77.7c-1.7,1.3-3.8,2.4-6,3c-0.4,0.1-0.5,0-0.7-0.3l-0.2-0.8c-0.1-0.3,0-0.5,0.4-0.6
				c2-0.5,4.2-1.6,5.6-2.7c2.9-2.2,5.1-6,2.3-9.9c-2-2.8-5-3-7.9-2.7l-6.6,0.7c-3.3,0.3-6.1-0.6-7.9-3c-2.9-3.9-1.3-8.4,2.7-11.4
				c1.8-1.3,4-2.2,5.6-2.5c0.3-0.1,0.5,0.1,0.5,0.3l0.2,0.7c0.1,0.3-0.1,0.4-0.4,0.5c-2,0.5-3.7,1.4-5,2.3c-2.9,2.1-4.5,5.6-2.3,8.6
				c1.9,2.6,4.4,2.8,7,2.6l5.6-0.5c4.1-0.4,7.4-0.1,9.9,3.3C721.3,69.7,719.4,74.5,715.1,77.7z"/>
			<path class="st1" d="M740.8,62.5c-1.9,0.9-4.2,1.5-6.5,1.7c-0.4,0-0.5-0.1-0.6-0.5l-0.1-0.8c0-0.3,0.1-0.5,0.5-0.5
				c2.1-0.1,4.4-0.7,6.1-1.4c3.3-1.5,6.3-4.8,4.3-9.2c-1.4-3.1-4.2-4-7.2-4.3l-6.6-0.8c-3.3-0.4-5.8-1.9-7-4.6
				c-2-4.4,0.6-8.5,5.1-10.5c2-0.9,4.3-1.3,6-1.3c0.3,0,0.4,0.2,0.4,0.4l0,0.7c0,0.3-0.2,0.4-0.5,0.4c-2,0.1-3.9,0.5-5.4,1.2
				c-3.3,1.4-5.6,4.4-4.1,7.9c1.3,3,3.7,3.7,6.3,4l5.5,0.7c4.1,0.5,7.2,1.5,8.9,5.3C748.5,56,745.7,60.3,740.8,62.5z"/>
			<path class="st1" d="M771.1,50.9c0.2-0.1,0.3,0,0.3,0.2l0.2,0.8c0,0.2,0,0.3-0.2,0.3l-8.1,1.8c-0.2,0-0.3,0-0.3-0.2l-0.2-0.8
				c0-0.2,0-0.3,0.2-0.3l3-0.7l-6.5-28.8l-3.1,0.7c-0.2,0.1-0.3,0-0.4-0.2l-0.2-0.8c0-0.2,0-0.2,0.2-0.3l8.2-1.8
				c0.2-0.1,0.3,0,0.4,0.2l0.2,0.7c0.1,0.2-0.1,0.3-0.3,0.3l-3.2,0.7l6.5,28.8L771.1,50.9z"/>
			<path class="st1" d="M797.9,50.1c-7.4,0-11.9-5.9-11.9-16.4c0-10.4,5.2-16.7,12.4-16.7c7.6,0,11.9,6.4,12,16.4
				C810.3,44.3,804.8,50.1,797.9,50.1z M798.2,18.7c-6.3,0-10.2,6.5-10.2,14.9c0,8.9,3.5,14.9,9.9,14.9c6.1,0,10.2-6.2,10.2-15
				C808.2,24.6,804.8,18.7,798.2,18.7z"/>
			<path class="st1" d="M846.2,57.5c-0.1,0.4-0.3,0.3-0.5,0.3l-0.8-0.2c-0.2-0.1-0.4-0.3-0.5-0.5l-10.2-32.3l0,0l-7.7,27.2
				c-0.1,0.4-0.3,0.4-0.5,0.3l-0.9-0.2c-0.3-0.1-0.4-0.2-0.3-0.5l8.5-30.2c0.1-0.2,0.2-0.3,0.5-0.3l0.8,0.2c0.3,0.1,0.4,0.2,0.5,0.5
				l10.2,32.1l0,0l7.6-27c0.1-0.2,0.2-0.3,0.4-0.3l1.1,0.3c0.2,0.1,0.2,0.2,0.2,0.4L846.2,57.5z"/>
			<path class="st1" d="M889.9,84c-0.2,0.1-0.5,0.1-0.6-0.1l-0.4-0.4c-0.2-0.2-0.3-0.4-0.2-0.7l9.2-27.4l-0.1-0.1l-18,19.7
				c-0.2,0.2-0.4,0.2-0.5,0.1l-0.9-0.8c-0.2-0.2-0.2-0.3,0-0.5l21.3-23c0.2-0.3,0.5-0.3,0.7-0.1l0.5,0.5c0.2,0.2,0.3,0.4,0.2,0.8
				l-9.9,29.2l0.1,0.1l27.4-14.2c0.3-0.2,0.4-0.1,0.6,0.1l0.7,0.6c0.2,0.2,0.2,0.3,0,0.5l-19.8,24.4c-0.2,0.3-0.4,0.2-0.6,0
				l-0.8-0.7c-0.2-0.2-0.3-0.3,0-0.6l16.7-20.8l-0.1-0.1L889.9,84z"/>
			<path class="st1" d="M919.7,118.1c0.2,0.2,0.1,0.4-0.1,0.6l-0.7,0.5c-0.2,0.1-0.4,0.1-0.5-0.1l-8-12.2c-0.2-0.4-0.2-0.6,0.1-0.8
				l25.8-17.1c0.4-0.3,0.6-0.2,0.9,0.2l8,12c0.1,0.2,0.1,0.3-0.1,0.4l-0.8,0.4c-0.3,0.1-0.4,0-0.5-0.2L936.6,91l-10.8,7.1l6.2,9.4
				c0.2,0.2,0.1,0.4-0.1,0.6l-0.7,0.4c-0.2,0.1-0.4,0.1-0.5-0.1l-6.2-9.4l-12.2,8L919.7,118.1z"/>
			<path class="st1" d="M932.2,146.4c0.1,0.3,0,0.4-0.2,0.5l-0.8,0.3c-0.2,0.1-0.4,0-0.5-0.3l-5.2-13.6c-0.2-0.4-0.1-0.6,0.3-0.8
				l29-11c0.5-0.2,0.7-0.1,0.9,0.4l5.1,13.5c0.1,0.2,0,0.3-0.1,0.4l-0.9,0.2c-0.3,0.1-0.4-0.1-0.5-0.3l-4.6-12.2l-12.1,4.6l4,10.6
				c0.1,0.3,0,0.4-0.2,0.5l-0.7,0.3c-0.2,0.1-0.4,0-0.5-0.3l-4-10.6l-13.6,5.2L932.2,146.4z"/>
			<path class="st1" d="M936,170.4c-0.2,0-0.4,0-0.4-0.3l-0.1-1.1c0-0.3,0-0.4,0.3-0.5l30-4.1l-1.2-9.2c0-0.3,0-0.3,0.3-0.4l0.9-0.1
				c0.2,0,0.3,0.1,0.3,0.3l2.8,20.5c0,0.3,0,0.5-0.3,0.5l-0.8,0c-0.3,0-0.4-0.1-0.4-0.5l-1.3-9.3L936,170.4z"/>
			<path class="st1" d="M935.9,199.7c0.2-2.1,0.7-4.4,1.7-6.5c0.2-0.4,0.4-0.4,0.7-0.3l0.8,0.3c0.3,0.1,0.3,0.4,0.2,0.7
				c-0.9,1.8-1.5,4.2-1.7,6c-0.3,3.6,1.2,7.8,5.9,8.2c3.4,0.3,5.6-1.8,7.3-4.2l3.8-5.4c1.9-2.7,4.5-4.2,7.4-3.9
				c4.8,0.4,7.2,4.6,6.7,9.6c-0.2,2.2-0.9,4.4-1.8,5.9c-0.2,0.3-0.4,0.3-0.6,0.2l-0.6-0.3c-0.3-0.2-0.3-0.4-0.1-0.6
				c0.9-1.8,1.4-3.7,1.6-5.3c0.3-3.5-1.2-7.1-4.9-7.4c-3.2-0.3-5,1.4-6.6,3.6l-3.3,4.5c-2.5,3.3-4.8,5.6-9,5.2
				C937.8,209.6,935.5,205,935.9,199.7z"/>
			<path class="st1" d="M925.8,244.1c-0.3-0.2-0.4-0.3-0.3-0.5l0.5-1c0.1-0.3,0.3-0.3,0.5-0.2l28.2,13.6c0.3,0.1,0.4,0.3,0.2,0.6
				l-2.2,4.6c-2.7,5.5-6.9,8.7-13.1,5.7c-5.9-2.8-6.8-8.5-4.3-13.8l1.7-3.5L925.8,244.1z M936.9,253.6c-2.2,4.5-1.7,8.9,3.7,11.5
				c5.8,2.8,8.9-0.5,11-4.9l1.4-3l-14.5-7L936.9,253.6z"/>
			<path class="st1" d="M903,282.1c-0.2,0.2-0.4,0.2-0.6,0.1l-0.7-0.5c-0.2-0.1-0.2-0.3,0-0.6l9-11.4c0.3-0.3,0.5-0.4,0.8-0.1
				l24.3,19.2c0.4,0.3,0.4,0.5,0.1,1l-9,11.3c-0.1,0.2-0.3,0.2-0.4,0.1l-0.7-0.7c-0.2-0.2-0.1-0.4,0-0.6l8.1-10.2l-10.1-8l-7,8.9
				c-0.2,0.2-0.4,0.2-0.6,0.1l-0.6-0.5c-0.2-0.1-0.2-0.3,0-0.6l7-8.9l-11.4-9L903,282.1z"/>
			<path class="st1" d="M898.3,304.3l-8.7-10.8c-0.2-0.2-0.2-0.4,0-0.6l0.9-0.7c0.2-0.1,0.3-0.1,0.5,0.1l19.7,24.4
				c0.2,0.2,0.2,0.4-0.1,0.6l-4.7,3.8c-5.1,4.1-9.6,4.3-13.5-0.5c-2.9-3.6-2.7-8.2,0.1-11.4l-14.8-6c-0.3-0.1-0.4-0.4-0.1-0.6
				l0.8-0.7c0.3-0.2,0.4-0.3,0.7-0.1l14.5,6.1L898.3,304.3z M895.4,308.6c-3.5,2.8-4.6,6.7-1.3,10.8c3.5,4.4,7.3,3.5,11.4,0.2
				l3.1-2.5l-9.3-11.6L895.4,308.6z"/>
			<path class="st1" d="M871.1,327l-10.1,5c-0.3,0.1-0.5,0.1-0.6-0.1l-0.4-0.7c-0.1-0.2,0-0.4,0.2-0.5l10.1-5l-6.8-13.9
				c-0.2-0.5-0.2-0.7,0.2-0.8l0.7-0.3c0.4-0.2,0.6-0.1,0.8,0.2l13.7,27.8c0.2,0.5,0.2,0.7-0.3,0.9l-13,6.4c-0.2,0.1-0.4,0.1-0.4-0.2
				l-0.3-0.8c-0.1-0.2,0-0.4,0.3-0.5l11.7-5.7L871.1,327z"/>
			<path class="st1" d="M823.4,326.8c-0.3,0.1-0.4,0-0.5-0.3l-0.2-0.8c-0.1-0.2,0-0.4,0.3-0.5l14.2-3.4c0.4-0.1,0.6,0,0.7,0.4
				l7.3,30.1c0.1,0.5,0,0.7-0.5,0.8l-14,3.4c-0.2,0.1-0.3,0-0.4-0.2l-0.1-0.9c0-0.3,0.1-0.4,0.4-0.4l12.7-3.1l-3.1-12.6l-11,2.7
				c-0.3,0.1-0.4,0-0.5-0.3l-0.2-0.8c-0.1-0.2,0-0.4,0.3-0.5l11-2.7l-3.4-14.2L823.4,326.8z"/>
			<path class="st1" d="M788.6,330.4c-0.2,0.1-0.4,0.1-0.5-0.2l-0.3-0.7c-0.1-0.2-0.1-0.4,0.3-0.6c2.5-1.3,5.2-1.9,8-1.9
				c9.1-0.1,13.4,7.4,13.5,16.4c0.1,8.7-4.6,16.6-13.4,16.7c-2.8,0-5.5-0.5-7.8-1.9c-0.2-0.1-0.2-0.3-0.1-0.6l0.3-0.7
				c0.1-0.3,0.4-0.3,0.6-0.2c2,1.2,4.4,1.8,6.9,1.8c8.1-0.1,11.6-7.8,11.5-14.9c-0.1-7.4-3.3-15.2-11.7-15.1
				C793.4,328.5,791,329.2,788.6,330.4z"/>
			<path class="st1" d="M765.2,323.8c0.1-0.2,0.2-0.3,0.5-0.3l1,0.2c0.3,0.1,0.4,0.2,0.3,0.5l-7,29.5l9,2.1c0.3,0.1,0.3,0.2,0.2,0.4
				l-0.2,0.9c0,0.2-0.2,0.3-0.4,0.2l-20.2-4.8c-0.3-0.1-0.4-0.2-0.3-0.5l0.3-0.8c0.1-0.3,0.3-0.3,0.6-0.2l9.1,2.2L765.2,323.8z"/>
			<path class="st1" d="M734.7,313.7c-0.2-0.1-0.2-0.2-0.1-0.4l0.3-0.7c0.1-0.2,0.2-0.2,0.4-0.1l7.5,3.5c0.2,0.1,0.2,0.2,0.1,0.4
				l-0.3,0.7c-0.1,0.2-0.2,0.2-0.4,0.1l-2.8-1.3l-12.6,26.7l2.9,1.4c0.2,0.1,0.3,0.2,0.2,0.4l-0.3,0.7c-0.1,0.2-0.2,0.2-0.4,0.1
				l-7.6-3.6c-0.2-0.1-0.3-0.2-0.2-0.4l0.3-0.7c0.1-0.2,0.2-0.2,0.4-0.1l3,1.4l12.6-26.7L734.7,313.7z"/>
			<path class="st1" d="M713.2,297.9c5.8,4.5,5.8,12-0.7,20.2c-6.4,8.2-14.4,10-20,5.6c-6-4.7-5.5-12.4,0.7-20.3
				C699.8,294.8,707.7,293.6,713.2,297.9z M693.5,322.5c5,3.9,12,1.1,17.2-5.5c5.5-7.1,6.4-13.9,1.3-17.9
				c-4.8-3.8-11.8-1.4-17.2,5.6C689.3,311.7,688.3,318.4,693.5,322.5z"/>
			<path class="st1" d="M679.5,262.4c0.3-0.2,0.4-0.1,0.5,0.1l0.5,0.6c0.1,0.2,0.2,0.5,0.1,0.7l-11.8,31.8l0,0l22.7-16.8
				c0.3-0.3,0.5-0.2,0.6,0.1l0.5,0.7c0.2,0.3,0.2,0.4-0.1,0.6l-25.2,18.7c-0.2,0.1-0.4,0.1-0.5-0.1l-0.5-0.6
				c-0.2-0.2-0.2-0.4-0.1-0.7l11.6-31.6l0,0l-22.6,16.7c-0.2,0.1-0.4,0.1-0.5,0l-0.7-0.9c-0.1-0.2-0.1-0.3,0.1-0.4L679.5,262.4z"/>
		</g>
	</g>
	<g>
		<path class="st1" d="M577,277.7c0,0.1-3.4,1.7-4.1,1.7c-0.7,0-1.5-0.2-1.7-0.2c-1.2,0.7-1.5-0.5-3.4-0.1l-0.2,0.1
			c-0.3,0-1.2-0.5-1.5-0.5l-4.9,0c-2,0-2.4,0.5-3.4,0.1l-1.9,0l0-0.1c-0.7,0-2.2,0.2-2.9,0.2l-4.4,0c-0.2,0-0.5-0.1-0.7-0.2l-1,0
			c-1.2,0.2-2.4,0.1-4.9-0.4c-0.7,0-1.7,0.3-2,0.3c-1.7,0-6.1-0.6-8.3-0.5c-0.2-0.1-0.5-0.1-0.7-0.1l-3.9,0c-0.2-0.1-0.5-0.2-1-0.2
			c-0.2,0-1.2,0.2-1.5,0.2c-1,0-2.7-0.3-3.4-0.4l-0.5,0l-0.5,0.1l-0.5,0c-1.2-0.3-2.2-0.6-3.4-0.6c-1.9,0.9-1.7-0.7-5.3-0.1l-1,0.2
			c-0.2,0-0.5,0-0.7-0.1l-0.5-0.2c-0.7,0-1.2,0.4-1.5,0.4c-0.7,0-2.2-0.5-3.2-0.5c-0.2,0-0.5,0.1-0.7,0.2l-1.9,0
			c-0.7,0.1-1.2,0.2-1.7,0.2l-0.2,0l-1.9-0.5l-0.5-0.1c-1,0-2.9,0.4-3.9,0.4c-0.7,0-1.5-0.6-2.4-0.6c-0.2,0-1.2,0.2-1.5,0.2l-0.5,0
			c-1-0.5-0.7,0.4-2.7,0.4c-1,0-2.9-0.5-3.9-0.5c-0.2,0-1.2,0.1-1.5,0.1c-2.4-0.3-3.9-0.3-6.6,0c-0.7,0-1.2-0.1-2-0.1l-0.5,0.1
			c-0.7,0.3-1-0.2-2.7-0.2c-0.2,0-1.5,0.3-2.2,0.3l-0.5,0l-0.5-0.1c-0.7,0.3-1.7,0.2-3.2-0.2c-1,0-3.4,0.2-4.1,0.2
			c-0.2-0.1-0.7-0.2-1.2-0.2c-1,0.2-2.2,0.3-3.4,0.3c-1,0-3.4-0.2-4.1-0.2l-1.5-0.3c-0.7,0-2.2,0.2-3.2,0.2l-1.5,0l-1-0.1l-0.3,0
			c-0.2,0-0.7,0.1-1,0.2l-3.6,0c-1.2,0-2.2,0-2.7-0.1l-2.7,0c-0.2,0.1-0.7,0.1-1,0.1c-3.6,0-6.3-0.1-7.5-0.4l-15.8-0.1l-0.7,0.1
			l-3.2,0.1c-2.9,0.5-6.8,0.6-11.7,0.5c-0.2,0.1-0.5,0.1-1,0.1c-0.2,0-1-0.2-1.7-0.2c-1,0-3.7,0.8-4.9,0.8c-2.2,0-2.4-0.1-2.4-0.9
			c0-0.1-0.2-0.2-0.5-0.4l-0.5-0.3c0-0.3,3.9-2,4.6-2c0.2,0,2.4,0.7,3.2,0.7c0.7,0,1.7-0.4,2-0.4l0,0.1c0.2,0.2,0.7,0.3,1.2,0.3
			c1.2,0,1.9,0,2.4-0.1c1.9,0,6.3-0.4,8-0.4c1.7,0.5,3.9-0.6,4.9-0.2c1.9-0.3,3.7-0.3,6.8-0.1c0.7,0,2.2-0.1,3.2-0.1l2,0
			c0.2,0,0.5,0,0.5,0.1l0.2,0c0.3,0,1-0.2,1.2-0.2c0.3,0,0.5,0,0.7,0.1l5.1,0c2.4,0.3,5.3,0.6,8.8,0.6l3.2,0
			c0.2-0.1,0.5-0.1,0.7-0.1c0.5,0,0.7,0,1,0.1l1,0c0.7,0,2.9-0.2,4.1-0.1c0.3-0.1,0.5-0.1,0.7-0.1c0.5,0,0.7,0,1,0.1
			c0.2-0.1,0.5-0.1,0.7-0.1l0.5,0c1,0,2.7,0.3,3.2,0.1c1.5,0,2.4,0,2.7-0.1l3.2,0c0.2,0.1,0.5,0.1,1,0.1c0.2,0,1.7-0.1,2-0.1
			c1.7,0,5.3,0.2,6.6,0.2l2.7,0c0.2,0,1-0.2,1.2-0.2c1.9,0.2,3.9,0.2,5.8,0c0.3,0,1.2,0.2,1.5,0.2l0.2,0c0.5-0.1,0.7-0.1,1-0.1
			l3.9,0c0.3-0.1,0.5-0.1,1-0.1l2.4,0l2.9,0l0.5-0.1c0.2,0,1.2,0.2,1.5,0.2c0.5,0,1,0,1.2-0.1c1.2,0,4.1-0.3,5.1-0.3
			c1.2,0,3.9,0.2,4.9,0.2c0.7,0,2-0.1,2.7-0.1c1,0.4,2.7-0.1,3.4,0.1l0.5,0.1c1,0,1.9-0.1,2.9-0.1l0.2,0l1-0.1l0.7,0l2.7,0
			c1,0.2,2.2,0,2.9,0l0.7,0l0,0.1c0.2,0.1,0.2,0.2,0.2,0.3l0.2-0.1c0.3-0.1,0.3-0.2,0.5-0.2l0.5,0c0.2,0.1,0.2,0.1,0.5,0.1
			c2.9-0.4,3.2,0.2,4.9-0.1l1,0c0.7,0.1,1,0.1,1.2,0.1l0.7,0l0-0.1l0.2,0.1l0.7,0c0.3,0,0.3,0,0.5-0.1l0.5,0c0.7,0,2.2,0.2,2.4,0.2
			l4.9,0c0.2,0,1,0.2,1.7,0.2c0.2,0,1-0.2,1.7-0.2l2.4,0c1,0,3.4,0.2,4.4,0.2c0.7,0,1.2-0.2,1.5-0.2c1.5,0,1.2,0.2,2.9,0
			c1,0,1.7,0.1,2.7,0.1l1,0c0.2-0.1,0.5-0.2,1-0.2c0.2,0,1.5,0.2,2.2,0.2c0.2,0,1-0.3,1.2-0.3c0.7,0,2.9,0.2,3.9,0.2l2,0
			c1,0,3.4-0.4,4.4-0.4c0.2-0.1,0.7-0.2,1-0.2c0.7,0,1,0.1,1,0.5c0,0.1-0.3,0.2-0.5,0.6C575.1,275.3,577,276.9,577,277.7z
			 M498.5,274.3c0,0.1,0.2,0.2,0.5,0.2c0.2,0,0.2,0,0.5-0.1c0-0.1-0.2-0.2-0.7-0.2L498.5,274.3z M399.1,275.2c0,0.1,0.5,0.2,1.2,0.2
			c0-0.2-0.3-0.3-0.7-0.3C399.3,275.1,399.1,275.1,399.1,275.2z M401.8,275.7c0.2,0,0.5-0.1,0.5-0.3c-0.2,0-0.7,0.1-1.5,0.2
			C401,275.6,401.5,275.7,401.8,275.7z"/>
	</g>
</g>
</svg>
