<?xml version="1.0" encoding="utf-8"?>
<!-- Generator: Adobe Illustrator 23.0.1, SVG Export Plug-In . SVG Version: 6.00 Build 0)  -->
<svg version="1.1" id="Layer_1" xmlns="http://www.w3.org/2000/svg" xmlns:xlink="http://www.w3.org/1999/xlink" x="0px" y="0px"
	 width="371.5px" height="121.7px" viewBox="0 0 371.5 121.7" style="enable-background:new 0 0 371.5 121.7;" xml:space="preserve"
	>
<style type="text/css">
	.st0{fill:#2E3C72;}
	.st1{fill:#80A8CF;}
</style>
<g>
	<g>
		<path class="st0" d="M36.5,65.4h11.6c3.7,0,6.8,0.3,10.8,1.4c4,1.1,6.7,3.7,6.7,7.4v0.1c-0.1,5.5-5.1,9.1-15.2,10.7l3.1,0.2
			c0.9,0.1,1.9,0.2,3.2,0.3c1.3,0.2,2.5,0.4,3.4,0.7c1.8,0.5,4.1,1.5,5.3,2.8c1.2,1.2,2.2,3.2,2.2,5.7c0,4.3-2.4,7.5-6.3,9
			c-3.8,1.4-7.5,2.1-11.9,2.1c-1.4,0-3.6,0-6.4-0.1h-6.4c2-0.5,3-3.3,3-8.5c0-1.5,0-3.8,0.1-6.7c0.1-3,0.1-5.2,0.1-6.7
			c0-9.8-0.3-15.4-1-16.5C38.2,66.5,37.5,65.9,36.5,65.4z M45.4,84.7c9.2-0.3,13.7-3.6,13.7-10.1v-0.1c0-3-1.4-5.2-3.2-6.4
			c-0.9-0.6-2-1-3.4-1.3c-2.6-0.7-4.4-0.8-7-0.8c0,0.2,0,2.3-0.1,6.5c-0.1,4.2-0.1,7.8-0.1,11V84.7z M56.8,87.1
			c-2.5-1.3-5-1.7-8.5-1.7c-1.3,0-2.3,0-2.9,0.1c0,9.9,0.1,15.6,0.4,16.9c0.5,1.9,0.9,2.7,2,2.9c3.8,0,7-0.8,9.3-2.4
			c2.4-1.6,3.6-4.2,3.6-7.9C60.8,91,59.4,88.3,56.8,87.1z"/>
		<path class="st0" d="M103.8,105.8H74c1.2-0.3,2-1,2.4-2c0.3-0.5,0.6-2.3,0.9-5.4v-5.4V78.3c0-6.1-0.3-9.7-0.9-10.9
			c-0.5-1-1.2-1.6-2.1-1.9h12.6c-0.9,0.2-1.5,0.5-2,0.9c-1.1,0.9-1.6,4.8-1.6,11.9v19.8c0.1,1.9,0.2,3.3,0.4,4.3
			c0.3,1.8,1.2,2.8,2.6,2.8c0.9,0.1,2.1,0.1,3.7,0.1c3.2,0,5.9-0.2,8.1-0.8c2.7-0.9,4.5-2.5,5.2-4.8h0.5V105.8z"/>
		<path class="st0" d="M123.8,65.4c-0.5,0.2-0.9,0.3-1.2,0.6c-0.5,0.4-0.9,0.8-1.2,1.3c-0.4,0.8-0.6,2.6-0.8,5.4
			c-0.1,1.4-0.1,3.2-0.1,5.4v12.5c0,4.4,0.9,8,2.7,10.7c1.9,2.7,4.5,4.1,7.9,4.1c4.6,0,8.1-1.4,10.4-4.3c2.3-2.9,3.5-6.7,3.5-11.3
			V76.9c0-2.1-0.1-3.8-0.2-4.9c-0.2-1.9-0.3-2.5-0.8-3.9c-0.5-1.4-1.4-2.3-3-2.6h9.1c-0.6,0.2-1.2,0.3-1.6,0.6
			c-1.7,1-2.5,4.6-2.5,10.8v13c0,10-5.2,16.2-15.4,16.5c-10.4,0-15.9-5.4-15.9-15.9V76.4c0-5.7-0.5-9-1.6-10c-0.5-0.5-1.3-0.8-2.1-1
			H123.8z"/>
		<path class="st0" d="M154.7,105.8c0.8-0.2,1.5-0.5,2.1-1c1.1-0.9,1.7-4.9,1.7-11.9V76.4c0-5.7-0.6-9-1.7-10
			c-0.5-0.4-1.2-0.8-1.9-0.9h29.2v6h-0.3c-0.6-2-1.9-3.4-3.8-4.1c-2.4-0.9-7.6-1.4-15.6-1.4v21.1h0.9h1.3h3.7c2.4,0,4-0.3,4.9-1
			c0.9-0.6,1.4-2.2,1.6-4.6h0.3v11.6h-0.3c-0.1-2.1-0.7-3.5-1.4-4.2c-0.4-0.4-1-0.7-1.9-0.9c-1.7-0.3-2.9-0.3-6.1-0.3h-2.1h-0.9V98
			c0.1,1.9,0.2,3.2,0.5,4.2c0.2,1.2,1.4,2.8,3,2.9c0.7,0.1,1.9,0.1,3.5,0.1c8.9,0,13.8-1.9,14.5-5.7h0.3v6.3H154.7z"/>
		<path class="st0" d="M247.8,65.4c-0.6,0.2-1,0.3-1.3,0.5c-1.7,1.1-2.6,4.7-2.6,10.8v29.3h-1.4l-26.9-35.6v23.8
			c0,6.1,0.8,9.7,2.5,10.9c0.5,0.3,1,0.5,1.6,0.6h-9.2c0.5-0.1,1-0.3,1.6-0.6c1.7-1.2,2.5-4.8,2.5-10.9V76.8v-2.1
			c0.1-1.1,0.1-1.7,0-2c0-0.3-0.1-0.9-0.1-1.7c-0.1-0.9-0.1-1.4-0.3-1.7c-0.2-0.5-0.8-2-1.5-2.4c-0.7-0.5-1.8-1.2-3.2-1.4h9.7
			l23.7,31.8l0.2-19.6v-0.8c0-6.1-0.9-9.7-2.6-10.8c-0.3-0.2-0.8-0.3-1.3-0.5H247.8z"/>
		<path class="st0" d="M290.3,100.4c-3.9,3.9-9.2,5.9-15.8,5.9c-6.5,0-11.9-2-16-6c-4.1-4-6.1-9-6.1-15.2s2-11.1,5.9-14.8
			c3.9-3.7,9.2-5.6,15.9-5.6c6.6,0,11.9,1.9,15.9,5.6c4.1,3.7,6.1,8.6,6.1,14.8C296.2,91.5,294.3,96.5,290.3,100.4z M259.3,85.6
			c0,10.1,4.1,20.2,15.3,20.2c11.2,0,14.9-10.2,14.9-20.1c0-10.1-4.2-20.2-15.2-20.2C263,65.4,259.3,75.5,259.3,85.6z"/>
		<path class="st0" d="M299.7,65.4h33.9v6.3h-0.4c-0.3-2.6-2.3-4.3-5.6-4.9c-1.6-0.3-3-0.6-4.1-0.6s-2.4-0.1-3.9-0.1v26.9
			c0,2.1,0.1,4,0.1,5.4c0.2,2.7,0.5,4.5,0.9,5.4c0.5,1,1.4,1.7,2.8,2H310c0.5-0.1,1-0.3,1.4-0.6c0.5-0.3,0.9-0.8,1.3-1.4
			c0.7-1,1-4.4,1-10v-0.8V66c-1.3,0-2.4,0-3.2,0.1c-0.8,0-1.9,0.1-3.2,0.3c-1.3,0.2-2.4,0.5-3.3,0.9c-1.6,0.7-3.5,2.2-4,4.3h-0.3
			V65.4z"/>
		<path class="st0" d="M339.9,105.8c0.8-0.2,1.5-0.5,2.1-1c1.1-0.9,1.7-4.9,1.7-11.9V76.4c0-5.7-0.6-9-1.7-10
			c-0.5-0.4-1.2-0.8-1.9-0.9h29.2v6H369c-0.6-2-1.9-3.4-3.8-4.1c-2.4-0.9-7.6-1.4-15.6-1.4v21.1h0.9h1.3h3.7c2.4,0,4-0.3,4.9-1
			c0.9-0.6,1.4-2.2,1.6-4.6h0.3v11.6h-0.3c-0.1-2.1-0.7-3.5-1.4-4.2c-0.4-0.4-1-0.7-1.9-0.9c-1.7-0.3-2.9-0.3-6.1-0.3h-2.1h-0.9V98
			c0.1,1.9,0.2,3.2,0.5,4.2c0.2,1.2,1.4,2.8,3,2.9c0.7,0.1,1.9,0.1,3.5,0.1c8.9,0,13.8-1.9,14.5-5.7h0.3v6.3H339.9z"/>
	</g>
	<g>
		<path class="st1" d="M53.9,3.8C54.4,3.5,57.4,0,58,0c0.7,0,0.9,1.1,1.2,1.4c0,1.3-0.2,1.9-0.5,1.9V3.2C58,3.2,56.8,5,56.5,5
			c-0.1,0-0.2-0.2-0.3-0.2c-0.3,0-0.9,1.2-1.3,1.2L54.6,6c0,0.1-0.2,0.1-0.2,0c0,0.2-0.5,1.5-0.6,1.5h-0.3c-0.2,0.5-0.5,0.8-1.2,1
			c-0.2-0.1-0.4,0-0.4,0.3c-0.3,0.6-2.6,2.6-2.6,2.7c0,0.1,0,0.2,0.1,0.2c-1.5,2.1-2.5,3.3-2.8,3.7c-0.3,0-0.5,0.9-0.8,0.9
			c-0.1,0.2-0.2,0.3-0.2,0.3c0,0.4-0.4,1-0.7,0.9l-0.1,0.2c0,0.1,0,0.1-0.1,0.2c0.1,0.4-0.3,0.9-1,1.6c-0.7,0.7-1.1,1.2-1.1,1.5
			c0,0.1,0,0.1,0.1,0.1h0.8c0.2-0.1,0.4-0.1,0.7-0.1c0.2,0,0.7,0.1,1,0.1c0.4,0,1.4-0.3,1.8-0.3h0.2c0.1,0.1,0.1,0.2,0.2,0.2H48
			c0.2,0.3,0.4,0.5,0.5,0.5c0-0.2-0.6,0.1,0.2-0.7c0.3-0.1,0.5-0.2,0.6-0.2c0.1,0,0.7,0.2,0.8,0.2h0.8l0.1,0.2c0,0.1,0,0.2-0.1,0.2
			c0.1-0.1,0.2-0.2,0.4-0.4l0.2-0.3l0.3,0.2c0.1,0,0.4-0.2,0.5-0.2l1.1,0.5c0-0.2,0.1-0.3,0.2-0.3l0.1,0.1c0.3,0.2,0.4-0.1,0.6-0.1
			h0.2c0,0.5,0.9-0.2,1.2-0.2c0.1,0,0.2,0.2,0.2,0.2H56c0.1,0,0.2-0.1,0.5-0.1v0.1c0.1,0.1,0.1,0.1,0.2,0H57c0.1,0,0.2,0,0.2-0.1
			c0.1,0.1,0.2,0.1,0.2,0.1c0.2,0,0.8-0.5,1.1-0.5h0.8l0.3,0.2c0.1,0,0.2-0.1,0.2-0.2h0.4c0.4,0,0.7,0.1,0.8,0.2
			c0.3,0,0.5,0.1,0.5,0.1c0.2,0,0.5-0.1,0.6-0.2c0.1,0.1,0.5,0.1,1,0.1c0,0.1,0.1,0.1,0.3,0.1l0.1-0.1h0.1c0.2,0,0.8,0.2,1,0.2
			l0.2-0.1c0.2,0,0.3,0.2,0.4,0.2c0.1,0.1,0.2,0,0.2-0.1l0.3-0.2c0.1,0,0.2-0.1,0.3-0.1c0.2,0,0.5,0.4,0.6,0.4
			c0.2,0,0.4-0.1,0.5-0.2h1.2l0.1-0.1h0.8h0.2c0.1,0.1,0.2,0.1,0.5,0.1c0.1,0,0.5-0.2,0.7-0.2c0.4,0,0.7,0.2,0.8,0.8
			c0-0.1,0.2-0.3,0.4-0.6h0.5l0.2,0.2c0.2,0.1,0.8-0.2,1-0.2h0.1c0.1,0.1,0.1,0.1,0.2,0l0.1-0.1c0.1,0,0.2,0,0.2,0
			c0.5,0.4,1.1,0.5,1.9,0.1c0.2,0,0.7,0.4,1,0.4c0.5-0.2,1.3-0.6,1.3-0.5l0.1,0.1c0.1,0,0.4-0.2,0.5-0.2c0.1,0,0.2,0.1,0.2,0.2v0.4
			c-0.1,0-0.2,0.1-0.2,0.2c0,0.1,0.1,0.2,0.2,0.2v-0.3c0.1,0,0.1-0.1,0.2-0.2l0.1-0.2l0.1,0.1c0.4,0.2,0.3-0.2,0.5-0.2h0.5
			c0.2,0,0.1,0.5,0.4,0.5c0.2,0,0.2-0.4,0.2-0.4l0.2,0.1c0.1-0.1,0.2-0.1,0.2-0.2c0.3,0,0.9,0.2,1.2,0.2c0,0.1,0.1,0.2,0.2,0.2
			c0.1,0,0.2-0.1,0.2-0.2h0.2c0.7,0,1.5,0.1,2.4,0.1c0.2-0.3,0.4,0,0.7,0l-0.1-0.1v-0.2l0.1,0.1h0.2c0.2,0,0.3,0,0.4-0.1H87
			c0.3,0,0.5,0.1,0.7,0.2c0.2-0.1,0.3-0.2,0.4-0.2c0.3,0,0.7,0.3,0.9,0.3c0.2,0,0.2-0.1,0.3-0.2c0.1,0,0.3,0.2,0.4,0.2
			c0.3,0,0.8-0.2,1.1-0.2h0.2c0.2,0,0.7-0.2,0.8-0.2l0.1,0.2l0.1,0.1c0.1,0,0.1,0,0.2-0.1h0.2c0.1,0,0.2,0,0.2,0.1
			c0.1,0,0.2,0,0.2-0.1l0.2-0.1c0.5,0,1.5,0.4,1.9,0.4s0.5-0.3,0.8,0c0.1,0,0.2-0.2,0.3-0.2v0.2c0.1,0.1,0.2,0.2,0.2,0.2v-0.2
			c0.1,0,0.6,0.2,0.8,0.2v-0.1c0.1-0.1,0.1-0.1,0.2-0.1c0.1,0.1,0.2,0.1,0.3,0.1c0.1,0,0.2,0,0.2-0.1c0.2,0.2,0.3,0.2,0.5,0.2
			c0.1-0.1,0.2-0.1,0.2-0.1h0.2h0.2c0.2,0,0.5,0.1,0.6,0.1l0.4-0.1c0.2,0.2,0.5,0.2,0.8,0l0.1,0.1h0.1l0.1-0.1
			c0.1,0,0.2,0.1,0.2,0.2h1c1.2,0,2,0.2,2.5,0.5c0.6,0,0.8,0.2,1.3,0.4c0.1,0,0.1,0,0.2-0.1c0.4,0,0.5,0.3,0.7,0.1h0.4
			c0.1,0.1,0.1,0.1,0.2,0.1l0.1-0.1c0.1-0.1,0.1-0.1,0.2-0.1c0.9,0,1.7,0.8,1.7,1.7c0,0.2-0.2,0.4-0.5,0.4c-0.1,0-0.2-0.1-0.4-0.2
			c-0.1,0.1-0.1,0.1-0.1,0.2l0.1,0.1c0.1,0,0.1,0,0.1,0.1c0,0.2-0.3,0.4-1,0.4c-0.1,0-0.2-0.2-0.3-0.2l-0.1,0.1
			c-0.1,0.1-0.1,0.1-0.2,0.1c-0.4,0-1.1-0.4-1.1-0.7c0-0.1,0.2-0.5,0.2-0.6c-0.4,0-1.4-0.3-1.6-0.3c-0.1,0-0.4,0.1-0.4,0.1
			c0,0.1-0.1,0.1-0.3,0.1c-0.2,0-0.2,0-0.2-0.1l-1.8-0.5c-0.1,0-0.1-0.1-0.1-0.2c-0.2,0.2-0.3,0.2-0.5,0.2h-0.7
			c-0.2,0-0.5-0.2-0.5-0.2h-0.2c-0.2,0-0.5-0.3-0.5-0.3c-0.2,0-0.4,0.1-0.5,0.3L98,21.9h-0.2c-0.2,0-0.3-0.2-0.4-0.2v0.2h-1
			l-0.9-0.3c-0.2,0-0.5,0.2-0.6,0.2c-0.2,0-0.6-0.2-0.7-0.2c-0.2,0-0.4,0.1-0.6,0.1c-0.2-0.2-0.5-0.2-1,0H92l-0.1-0.1
			c-0.1-0.1-0.1-0.1-0.2-0.1h-1.9c-0.1,0-0.2-0.2-0.3-0.2c-0.2,0-0.7,0.3-1,0.3c-0.1,0-0.5-0.2-0.7-0.2c-0.5,0.2-0.6,0-0.9,0
			l-0.2-0.1c-0.1,0-0.3,0.2-0.5,0.2l-0.2-0.1c-0.1,0-0.1,0-0.1-0.1l-0.3,0.1l-0.4,0.1c-0.1,0-0.3-0.2-0.4-0.2h-0.1l-0.1,0.1
			c-0.1,0-0.2-0.2-0.5-0.2c-0.1,0.2-0.3,0.2-0.7,0.2h-0.2c-0.1,0-0.1-0.2-0.2-0.2l-0.5,0.2h-0.2h-1H81c-0.1,0.1-0.1,0.1-0.2,0.1
			c-0.2,0-0.5-0.1-0.9-0.2l-0.2-0.1c-0.1,0.1-0.2,0.2-0.3,0.2h-1c-0.1,0-0.2,0-0.2-0.1l-0.2-0.2c-0.5,0-0.4,0.3-0.8,0.2h-0.1
			c-0.1,0-0.2,0-0.2,0.1l-0.2,0.1c-0.3,0-1.2-0.4-1.3-0.4c-0.1,0.1-0.1,0.1-0.1,0.2c0.1,0.1,0.1,0.1,0.2,0.1h-1.4
			c-0.1,0-0.4-0.1-0.8-0.2c-0.5-0.1-1.3,0.4-1.2,0c-0.1,0-0.2,0-0.2,0.1l-0.2,0.2c-0.1,0-0.5-0.4-0.5-0.4l-0.2,0.3
			c0,0.1-0.1,0.1-0.2,0.1c-0.2,0-0.4-0.1-0.6-0.2c0-0.2,0-0.2,0.1-0.3c0.1,0,0.1-0.1,0.1-0.2c-0.1-0.2-0.1-0.2-0.2-0.2
			c-0.1,0-0.2,0.2-0.2,0.5c0,0.1-0.4,0.2-0.7,0.2l-0.2,0.1c-0.3-0.2-0.6-0.2-0.8-0.2l-0.6,0.3c-0.4-0.2-0.7-0.2-0.9-0.1
			c-0.1-0.1-0.2-0.1-0.2-0.1l-0.2-0.1h-0.2c-0.1,0-0.3,0.2-0.5,0.2h-0.2c-0.4,0-1.2,0.1-1.5,0.1L64,21.5c0-0.1,0-0.1-0.1-0.1h-0.7
			l-0.1,0.1C63,21.6,63,21.6,63,21.6s-0.2-0.1-0.2-0.2c0,0,0.5-0.2,0.2-0.2c-0.2,0-1.2,0.7-1.2,0.3l-0.2-0.1H61c-0.1,0-0.1,0-0.1,0
			l-0.2,0.1l-0.1-0.1c-0.1-0.1-0.2-0.1-0.2,0l-0.1,0.1c-0.1,0.1-0.2,0.1-0.5,0.1c-0.3,0-0.8-0.2-1.1-0.2c-0.4,0-0.2,0.2-0.5,0.2
			c-0.1,0-0.5-0.2-0.8-0.2h-0.7l-0.1,0.1c-0.1,0-0.2,0-0.2-0.1l-0.4,0.2l-0.4-0.1c-0.2,0-0.5,0.2-0.6,0.2c-0.2,0-0.7-0.2-0.8-0.2
			l-0.2,0.2c-0.2,0.1-0.2,0.1-0.3,0.1c-0.2,0-0.5-0.1-0.5-0.1L53,21.3c-0.1,0-0.2,0.1-0.2,0.3h-0.9l-0.2,0.1c-0.1,0-0.1-0.1-0.1-0.2
			l-0.2,0.2c-0.1,0.1-0.2,0.1-0.5,0.1c-0.2,0-0.8-0.2-1-0.2l-0.2,0.1l-0.2-0.2l-0.1,0.2l-0.2,0.1c-0.2,0-0.4-0.3-0.6-0.3l-0.1,0.1
			l0.2,0.1c0,0.2-0.2,0.3-0.8,0.3c-0.1,0-0.3-0.2-0.5-0.2L47,22l-0.5,0.1h-0.5c-0.4,0-0.5-0.2-0.6-0.4c-0.5,0.5-0.4-0.3-0.8-0.1
			l0.3,0.3c0,0.1,0,0.1-0.1,0.2h-0.7L44.1,22L44,22.1c-0.2,0.2-0.6,0.3-1.2,0.3c-0.1,0-0.4-0.1-0.5-0.1c-0.5,0-0.9,0.2-1.2,0.4
			c-0.6,0.4-1.2,2.2-1.3,2.3c-0.3,0.3-1,0.7-1,1l0.1,0.1c0,0.5-0.5,1.3-1.5,2.3C36.6,30.2,36,31,35.8,31c-0.1,0-0.2-0.1-0.5-0.1
			l0.2,0.6c0,0.1-0.3,0.5-0.4,0.5l-0.2-0.2c-0.1,0-0.2,0-0.2,0.1c0,0.1,0.2,0.3,0.2,0.4c0,0.4-1.2,1.3-1.2,1.5l0.1,0.2
			c0,0.5-1.3,1.5-1.3,1.9c0,0.1,0,0.2,0.1,0.2c-0.1,0.4-0.4,0.9-1,1.5c-0.4,0.5-0.9,1.4-1.6,2.8c-0.7,1.5-1.1,2.5-1.3,3.2
			c-0.1,0.1-0.6,0.2-0.6,0.4c0,0.1,0,0.1,0,0.1l0.1,0.2l-0.1,0.1L28,44.5c0,0.1-0.3,0.5-0.3,0.7l0.1,0.3c0,0.1-0.2,0.3-0.2,0.4
			l0.1,0.1c0,0.5-1.1,1.6-1.1,1.7v0.6c0,0.3-0.7,1.2-0.7,1.2h0.1c0,0.2-0.4,1.1-0.5,1.1c0,0.2-0.1,0.4-0.2,0.5v0.6
			c0,0.2-0.6,0.7-0.6,0.9c0.2,0.2,0.2,0.8-0.2,1.6c0,0.3,0.3,1.3,0.3,1.6L24.6,56v0.4c0.1,0.1,0.2,0.2,0.2,0.5
			c-0.2,0.5-0.2,0.5,0.2,1c0,0.1,0,0.1-0.1,0.2v0.2c0,0.3,0.8,0.8,1,1h0.5l0.1,0.2l0.1,0.2l0.3-0.3c0.1,0,0.1,0.4,0.3,0.4
			c0.1,0,0.5-0.5,0.7-0.5c0.1,0,0.3,0.2,0.5,0.2c0.3,0,0.5-0.5,0.8-0.5l0.2,0.2c0.2,0,0.5-0.4,0.7-0.4c0.1,0,0.2,0.1,0.2,0.1
			c0.2,0,0.7-0.6,0.8-0.6c0.1-0.1,0.2-0.1,0.2-0.1c0.1,0,0.1,0.1,0.2,0.1c0.2-0.1,0.5-0.4,1.1-0.9c0.1,0,0.1,0,0.2,0.1h0.1
			c0.2-0.3,0.2-0.5,0.3-0.5c0.2,0,0.2,0.2,0.2,0.4v0.2c0.1,0,0.2-0.1,0.2-0.2c0-0.2-0.1-0.3-0.2-0.3c0.1-0.2,0.4-0.5,1-0.7v-0.2
			v-0.2l-0.1-0.1c0.3-0.1,0.8-0.5,1-0.5c0.1-0.1,0.2,0,0.2,0.1l0.1,0.1c-0.3-0.5,3.7-3.9,4.2-4.5c0.2-0.4,1-1.2,2.5-2.5
			c1.5-1.3,2.3-2,2.5-2c0.1,0,0.7-0.5,1-0.5c0.3,0,0.5,0.1,0.5,0.3c0,0.2-0.1,0.2-0.2,0.3c0,0,0,0-0.1,0l-0.1,0.1
			c-0.4,0.7-0.7,1.2-0.8,1.2C44.3,47.9,44,48,44,48.1c-0.1,0.6-1.5,1.5-1.6,1.7c-0.3,0.5-0.8,1.5-0.8,1.8c-0.2,0-0.2-0.2-0.2-0.4
			c-0.4,0-0.8,0.4-1.3,1.2c-0.5,0.8-0.8,1.3-1.2,1.3c0,0.2,0,0.2-0.1,0.2c-0.2,0-0.2-0.1-0.2-0.2l0.2-0.2c-0.1,0-0.3-0.4-0.4-0.4
			c-0.1,0-0.2,0.1-0.2,0.2s0.2,0.2,0.2,0.5c0,0.7-1.7,2.1-1.7,2.2C36.3,56,35.8,57,35.6,57c-0.2,0-0.2,0-0.2-0.1
			c-0.2,0.1-0.6,0.4-1.2,1.1c-0.5,0.7-1,1-1.3,1c-0.3,0-0.2-0.8-0.4-0.8c-0.6,0,0.2,0.5,0.2,0.8c0,0.5-1.8,1.3-2.5,1.3l-0.1-0.1
			L30,60.3c-0.1,0-0.2,0-0.2-0.1c-0.1,0-0.4,0.5-0.6,0.5c-0.1,0-0.1,0-0.2-0.1c-0.2,0.1-0.5,0.3-0.5,0.2l-0.2-0.1
			c-0.1,0-0.3,0.2-0.5,0.2c-0.2,0-0.2-0.1-0.3-0.2c-0.1,0.3-0.2,0.5-0.6,0.5c-0.2,0-0.3-0.2-0.4-0.2c-0.1,0.1-0.1,0.1-0.1,0.2h-0.4
			c-0.2,0-0.2-0.1-0.2-0.2L25.7,61c-0.2,0-1.5-0.6-1.5-0.7c0.1,0,0.2,0,0.2-0.1c-0.8-0.8-1.8-1.5-1.8-2.7c0-0.1,0-0.1,0.1-0.2
			l0.1-0.1l-0.1-0.1l-0.1,0.1v-0.2v-0.5l-0.1-0.2c0.4-0.5,0.5-0.6,0.2-0.9l0.1-0.1v-0.1l-0.3-0.2v-0.7c0.2-0.1,0.2-0.2,0.2-0.3
			c0-0.1,0-0.2-0.1-0.2c0-0.3,0.6-0.9,0.6-1S23,52.9,23,52.6c0-0.8,0.2-1.2,0.5-1.2l0.2,0.2c0.1,0,0.2-0.4,0.4-0.5
			c0.2-0.4,0.2-0.5,0.1-0.5l-0.2,0.2h-0.1v-0.3l0.4-0.2c0-0.1-0.2-0.3-0.2-0.4c0-0.2,0.2-0.8,0.2-1.2c0.2-0.1,0.2-0.5,0.3-0.5
			l0.2-0.4c0.5-1.7,0.6-0.9,0.8-0.9v-1c0-0.1,0.5-0.5,0.5-0.6v-0.7c0-0.1,0.2,0.1,0.2-0.2c0-0.2,0.1-0.4,0.3-0.4v-0.2l-0.1-0.1
			c0-0.3,0.1-0.5,0.2-0.5c0,0.1,0,0.1,0.1,0.2c0.2,0,0.2-0.2,0.2-0.5c-0.1-0.1-0.1-0.1-0.1-0.2c0.4-0.4,0.8-1.2,1.3-2.2
			c0.5-1,0.9-1.7,1.2-2.1c-0.1-0.1,0-0.2,0.1-0.2l0.2-0.2c-0.1-0.1-0.1-0.1-0.1-0.2c0-0.2,0.3-0.5,0.9-1.2c-0.1-0.3,0.7-1.5,1-1.8
			c0.1-0.3,0.4-0.8,0.9-1.5c0.6-0.8,0.9-1.2,0.9-1.3l-0.1-0.1c0-0.3,0.5-1.1,1.4-2.4c1-1.3,1.5-2.2,1.5-2.4c0.2-0.4,1.4-2.5,1.8-2.5
			H38l0.1,0.1c0.1,0,0.1,0,0.1-0.1c-0.1-0.5,1-1.5,1-1.8c-0.1-0.2-0.2-0.3-0.5-0.3l-0.3,0.2c-0.1,0-0.4-0.2-0.5-0.2
			c-0.3,0-0.8,0.2-1,0.2c-0.2,0-0.2,0-0.3-0.1l-0.2,0.1c-0.1,0.1-0.4,0.2-0.8,0.2l-0.1-0.1l-0.1-0.1c-0.8,0-1.2,0.1-1.2,0.3H34
			c-0.1,0-0.3,0.1-0.5,0.1c-0.1,0-0.3-0.2-0.4-0.2c-0.2-0.1-0.6,0.5-0.7,0.2L32.3,23l-0.2,0.2h-0.3c-0.1,0-0.9,0.4-1.2,0.4h-0.2
			l-0.1-0.1l-0.1,0.2c-0.3,0-0.4-0.2-0.3-0.4c-0.1-0.1-0.2-0.1-0.4-0.1c-0.4,0.2-0.6,0.4-0.6,0.5c0.2,0,0.2,0.1,0.2,0.2
			c0,0.1-0.3,0.2-0.3-0.1c0,0.1-0.1,0.2-0.2,0.2c-0.1,0-0.3-0.2-0.4-0.2h-0.5L27.4,24c-0.2,0.2-0.5,0.2-0.6,0.2
			c-0.1,0-0.2-0.1-0.3-0.2l-0.2-0.2c-0.1,0-0.2,0.1-0.2,0.2l0.1,0.2c-0.2,0.1-0.3,0.1-0.5,0.1c-0.2-0.2-0.5-0.1-1.2,0.3l-0.1-0.2
			c-0.1,0-0.2,0.2-0.2,0.2c-0.2,0-0.2-0.1-0.2-0.2l-0.2,0.1c0,0.1,0.2,0.2,0.2,0.2c-0.1,0-0.2,0-0.3-0.1c-0.1-0.1-0.2-0.1-0.2-0.1
			c-0.7,0-2.8,0.5-3.7,0.5c-0.1,0-0.4-0.1-0.5-0.1c-0.5,0-1.9,0.4-2.5,0.4l-0.1-0.1c-0.6,0-1.2,0.1-1.9,0.3c-0.1,0-0.1-0.1-0.2-0.1
			l-0.2,0.1l-0.1-0.1c-0.1-0.1-0.2-0.1-0.2-0.1c0.1,0.1,0.1,0.2,0,0.2l-0.1,0.2l-0.2-0.2c-0.1,0.1-0.1,0.1-0.1,0.2
			c-0.1,0.3-0.4,0.5-0.9,0.5c0.1,0.2,0.1,0.2-0.1,0.2c-0.1-0.1-0.1-0.1-0.2-0.1h-0.1c-0.1,0.1-0.2,0.1-0.3,0.1h-0.3
			c0-0.2-0.1-0.3-0.2-0.3s-0.1,0.1-0.1,0.2l-0.1,0.2c0-0.1-0.1-0.1-0.2-0.1h-0.5c-0.1,0-0.2,0.2-0.2,0.2c-0.1-0.1-0.2-0.1-0.2-0.1
			c0,0.2-0.1,0.2-0.2,0.2l-0.2-0.2c-0.1,0.1-0.1,0.2-0.2,0.2c-0.2,0-0.2-0.1-0.2-0.2c-0.1,0-0.2,0-0.2,0.1H9.4l-0.2-0.2L9,26.5
			c-0.1,0-0.1,0-0.2-0.1C8.6,26.8,8,27,7.2,27c-0.2,0-0.7-0.1-0.8-0.1c-0.2,0-0.8,0.2-1.1,0.2H4.9l-0.2-0.1
			c-0.3,0.2-0.5,0.2-0.5,0.2H4H3.8c0,0.2-0.2,0.2-0.4,0.2H3.4c-0.1-0.1-0.1-0.1-0.2-0.1c-0.2,0-0.6,0.3-0.8,0.3
			c-0.1,0-0.4-0.1-0.5-0.1c-0.2,0-0.3,0-0.4,0.1c-0.2,0-0.3-0.1-0.4-0.3H0.5c-0.3,0-0.5-0.4-0.5-1.2c0-0.1,0-0.2,0.1-0.2h0.3
			l0.4-0.4c0-0.1,0-0.2,0.1-0.2h0.2c0.1,0,0.1,0,0.1,0l0.2,0.1c0.1,0,0.1-0.2,0.3-0.3v0.2c0.4,0,1-0.3,1.4-0.3V25h0.3
			c-0.3-0.3,2.8-0.5,3-0.5c0.1-0.1,0.1-0.1,0.2-0.1h0.3h0.3h0.1c0.1,0,0.1,0,0.2-0.1h0.1c0.1,0,0.1,0,0.1,0.1l0.2,0.1
			c0.5-0.3,0.7-0.4,1-0.2l0.3-0.1c0.1,0,0.5,0.1,0.7,0.1l0.2-0.2c0.2-0.1,0.3-0.2,0.4-0.2c0.5,0,0.8,0.2,0.9,0.4
			c0.1,0,0.2-0.2,0.2-0.2l0.3,0.3c0.1,0,0.2-0.3,0.5-0.3c0.1,0,0.1,0,0.1,0l0.2,0.1l0.2-0.1c0.1,0,0.1,0,0.1-0.1l0.3,0.1
			c0,0.3,0.1,0.5,0.3,0.5c0.1,0,0.2-0.1,0.2-0.2c0-0.1-0.4-0.1-0.4-0.3c0-0.2,0.2-0.2,0.4-0.2c0.1,0,0.4,0.2,0.5,0.2l0.1-0.1
			c0.1-0.1,0.2-0.2,0.3-0.2c0.1,0.1,0.2,0.1,0.2,0.1c0.2,0,1-0.2,1.3-0.2l0.1,0.2c0.6,0,0.5-0.5,1.3-0.1c0.1,0,0.5-0.2,0.8-0.2
			c0.1,0,0.3,0.2,0.5,0.2c0.3,0,1.2-0.3,1.7-0.3h0.5c0.1-0.1,0.2-0.1,0.2-0.1c0.5,0.2,0.8,0.2,0.8-0.1h0.5c0.1-0.1,0.4-0.1,0.8-0.1
			c0.1,0.1,0.4,0.2,0.5-0.1c0.2-0.1,0.6-0.1,1-0.1l0.4,0.2c0.2,0,0.8-0.5,1.2-0.5c0.1,0,0.4,0.3,0.6,0.3v-0.2c0.3,0,0.5-0.2,0.6-0.2
			h0.2c0.1,0,0,0.2,0.2,0.2c0.2,0,0.6-0.1,1.2-0.2c0.2-0.2,0.7-0.3,1.5-0.3l0.2,0.1c0.3,0,1-0.5,1.4-0.5c0.1,0,0.2,0.2,0.3,0.2
			c0.2,0.1,0.8-0.2,1.1-0.2c0.1,0,0.3,0.2,0.4,0.2c0.2,0,0.8-0.4,0.9-0.4l0.2,0.1c0.1,0,0.4-0.1,0.5-0.1c0.2,0,0.3,0,0.4,0.1
			c0.1,0,0.4-0.2,0.5-0.2h0.4c0.2,0,0.4,0.1,0.6,0.2c0.2-0.2,0.5-0.3,1.1-0.3h0.4h0.2c0.1,0.2,0.2,0.2,0.4,0.2
			c0.1,0,0.2-0.2,0.5-0.2l0.5,0.2c0.2-0.2,0.7-0.7,1.5-1.7c0.8-1,1.2-1.6,1.2-1.8c0.1-0.3,1.1-1,1.1-1.1l-0.1-0.2
			c0-0.2,0.5-0.8,0.8-0.9v-0.2c0.3-0.3,1.3-2.2,1.7-2.2c0.1,0.1,0.1,0.1,0.2,0.1c0-0.2,0.3-0.6,0.3-0.7c0.1,0,0.5-0.8,0.9-1.5
			c0.5-1,0.5-0.3,0.8-0.3c0.2-0.2,0.3-0.9,0.4-1.2c0.8-1.3,1.7-2.3,2.5-3L52,7.4V6.8c-0.1-0.1-0.2-0.1-0.4-0.2
			c0-0.2,1.2-1.2,1.2-1.5l0.8-0.8L54,4L53.9,3.8L53.9,3.8z M0.5,26.3H0.4c0,0.2,0.1,0.2,0.2,0.3V26.3z M3.4,25.2L3.4,25.2L3.4,25.2z
			 M6.3,25L6.3,25c0.1,0.2,0.1,0.2,0.2,0.2C6.5,25.2,6.4,25.1,6.3,25z M6.8,26.2L6.8,26.2L6.8,26.2L6.8,26.2z M8.4,25.9L8.4,25.9
			L8.4,25.9z M10.1,25.9c0.1,0,0.2-0.1,0.2-0.2C10.2,25.8,10.1,25.9,10.1,25.9z M11.3,25.2L11.3,25.2L11.3,25.2z M11.8,24.2h-0.2
			H11.8z M12.1,25c0-0.2-0.1-0.4-0.3-0.4c0,0.4,0.1,0.5,0.2,0.5L12.1,25z M12.2,25.7c-0.1,0-0.1,0.1-0.1,0.2c0.2,0,0.6,0.6,0.6,0.2
			C12.6,26,12.5,25.9,12.2,25.7L12.2,25.7z M12.9,24.9L12.9,24.9L12.9,24.9z M13.9,24.9h0.2H13.9z M14.4,25.5L14.4,25.5L14.4,25.5z
			 M22.7,54.3c0,0.2,0.2,0.3,0.4,0.3C23.1,54.3,22.9,54.3,22.7,54.3z M23.3,59.1L23.3,59.1L23.3,59.1z M24.5,24.3L24.5,24.3
			L24.5,24.3z M24.5,57L24.5,57L24.5,57L24.5,57z M24.8,59.7l0.1-0.2c-0.1-0.1-0.2-0.2-0.2-0.4h-0.1c-0.1,0-0.1,0.1-0.1,0.3
			C24.6,59.7,24.6,59.7,24.8,59.7z M25.9,60.8c0-0.2-0.4-0.7-0.4-0.8c-0.2,0.2-0.1,0.4,0.2,0.7L25.9,60.8z M25.9,49.1
			C25.9,49.2,25.9,49.2,25.9,49.1h0.2L26,49L25.9,49.1z M26,46.3c0,0.4,0.3,0.4,0.3,0.2C26.2,46.4,26.1,46.3,26,46.3z M26.1,23.8
			L26.1,23.8L26.1,23.8z M26.1,47.3L26.1,47.3L26.1,47.3z M26.5,60.7L26.5,60.7L26.5,60.7z M26.6,46.9L26.6,46.9L26.6,46.9z
			 M27.1,59.7L27.1,59.7L27.1,59.7z M28.7,42.2L28.7,42.2L28.7,42.2z M29,59.7l0.2,0.2v-0.2C29.2,59.7,29.2,59.6,29,59.7L29,59.7z
			 M29.7,59.8v-0.2l0.1-0.1c0.1-0.1,0.1-0.1,0.1-0.2c-0.3,0-0.5,0.1-0.5,0.3C29.6,59.7,29.6,59.8,29.7,59.8z M30.6,59.3
			C30.6,59.4,30.6,59.4,30.6,59.3h0.2H30.6L30.6,59.3z M30.9,37.7L30.9,37.7L30.9,37.7L30.9,37.7z M31,59.7L31,59.7L31,59.7z
			 M33.2,57C33.1,57,33.1,57,33.2,57L33.2,57z M33.3,57.5L33.3,57.5L33.3,57.5L33.3,57.5z M33.9,56.7v-0.2V56.7z M34.8,22.2l0.2-0.1
			c0-0.1-0.1-0.1-0.2-0.1V22.2z M38.8,26.1L38.8,26.1L38.8,26.1z M39.2,53.3L39.2,53.3L39.2,53.3z M39.6,22.4L39.6,22.4l0.2,0.1
			v-0.1H39.6z M39.9,22c0-0.1,0-0.1,0.1-0.2h-0.1V22z M40.1,50.3L40.1,50.3L40.1,50.3z M40.6,51.3L40.6,51.3L40.6,51.3z M40.9,50.9
			L40.9,50.9L40.9,50.9z M41.7,49.2c0.1,0,0.1,0,0.2-0.1L41.7,49.2L41.7,49.2z M42,49.5L42,49.5C42.1,49.5,42.1,49.5,42,49.5
			L42,49.5z M43.2,48v-0.2c-0.1,0-0.2,0-0.2,0.1C43.1,48,43.1,48,43.2,48z M44.3,47c0,0.1,0.1,0.2,0.2,0.2C44.4,47,44.4,47,44.3,47
			L44.3,47z M45,46.1L45,46.1L45,46.1z M45,46.6h0.2H45L45,46.6z M45.1,16.8L45.1,16.8c-0.1,0.1-0.1,0.1,0,0.2V16.8z M45.9,15.5
			c-0.1-0.4-0.2-0.5-0.4-0.5c-0.2,0-0.2,0.4,0.2,0.7C45.8,15.6,45.9,15.5,45.9,15.5z M46.7,14.2c0-0.1-0.1-0.2-0.3-0.5
			C46.4,14.1,46.5,14.2,46.7,14.2z M47.7,21.4c-0.1,0-0.2,0-0.2-0.1c-0.1,0-0.1,0-0.2,0.1C47.6,21.6,47.7,21.6,47.7,21.4z
			 M47.6,13.3L47.6,13.3L47.6,13.3z M48.1,12.5L48.1,12.5L48.1,12.5L48.1,12.5z M48.5,12L48.5,12L48.5,12L48.5,12L48.5,12z M51.4,21
			c-0.1,0-0.1,0.2,0,0.2V21z M51.8,8.4c0-0.1-0.1-0.2-0.2-0.2C51.6,8.3,51.7,8.4,51.8,8.4z M51.9,6.9L51.9,6.9L51.9,6.9z M53.1,6.8
			H53C53,6.9,53,6.9,53.1,6.8L53.1,6.8z M53,21.2c0.1-0.1,0.2-0.2,0.2-0.2C53,21,53,21.1,53,21.2z M53.6,5.2c0.2,0,0.2-0.1,0.2-0.3
			l-0.1-0.1c-0.2,0-0.3,0.1-0.3,0.2L53.6,5.2z M53.8,5.7L53.8,5.7c0.1-0.1,0-0.2-0.2-0.2L53.8,5.7z M54,5.4c0.1,0,0.1,0,0.2-0.1
			l0.1-0.2V4.9C54,5.2,54,5.2,54,5.4L54,5.4z M54,5.9L54,5.9L54,5.9z M54.6,5.1L54.6,5.1L54.6,5.1z M56.1,3.3L56.1,3.3L56.1,3.3z
			 M57.6,21.1L57.6,21.1c0.1-0.2,0-0.2-0.1-0.2L57.6,21.1z M58,2.4L58,2.4c-0.1,0.1-0.1,0.2,0,0.2V2.4z M58.2,2.5L58.2,2.5L58.2,2.5
			L58.2,2.5z M69,20.8C69,20.8,69,20.8,69,20.8L69,20.8z M76.9,20.7L76.9,20.7L76.9,20.7z M77.9,20.3L77.9,20.3L77.9,20.3z M79.8,21
			c0-0.2,0-0.2-0.1-0.2c-0.1,0-0.2,0.1-0.2,0.2C79.7,21,79.7,21,79.8,21z M80.1,21.2L80,21.1c-0.3,0-0.3,0.2,0,0.2
			C80,21.2,80.1,21.2,80.1,21.2z M80.2,20.5L80.2,20.5L80.2,20.5z M80.2,20.7L80.2,20.7L80.2,20.7z M80.3,21L80.3,21
			C80.4,20.9,80.4,20.9,80.3,21L80.3,21z M80.4,21.3L80.4,21.3L80.4,21.3z M86.5,20.8L86.5,20.8L86.5,20.8z M87.2,20.7L87.2,20.7
			L87.2,20.7z M88.1,21.2l0.1-0.2c-0.1,0-0.2,0-0.2,0.1L88.1,21.2z M91.7,21.6L91.7,21.6L91.7,21.6L91.7,21.6z M92.4,21.6L92.4,21.6
			L92.4,21.6z M98.7,21.2V21V21.2z M100.3,21.2c0-0.2-0.1-0.2-0.2-0.2C100.1,21,100.2,21.1,100.3,21.2z M107.6,22.2L107.6,22.2
			L107.6,22.2L107.6,22.2z M107.8,23.3c0,0.1,0.1,0.1,0.2,0.1L107.8,23.3L107.8,23.3z M107.9,22.9L107.9,22.9L107.9,22.9z"/>
		<path class="st1" d="M64.5,18.1l1.2-2.1l0.3-0.6c0.1,0,0.2,0.1,0.6,0.2l0.5,0.2c0.8,0.5,1.3,1,1.3,1.2c0,0.1,0,0.2-0.1,0.3
			c-0.2,0.3,0.1,0.4,0.1,0.8v0.2c-0.2,0-0.5,0.2-0.8,0.6c-0.7,0.3-1,0.7-1,1.1c-0.5,0.4-1,1.3-1.4,1.7c-0.1,0-0.1,0.1-0.1,0.2
			s0.2,0.3,0.2,0.4c-0.1,0.2-0.5,0.5-1.4,1.1c-0.8,0.5-1.2,1.1-1.5,1.6c-0.1,0.3-1.2,1.1-1.2,1.2l0.1,0.2c0.1,0.1,0.1,0.2,0.2,0.2
			c-0.1,0.1-0.1,0.2-0.1,0.2H61l-0.2,0.2c-1.5,1.6-2.2,2.5-2.5,2.5c0,0.3-0.4,0.7-0.4,0.9l0.1,0.1v0.2c-0.2,0.2-0.2,0.2-0.3,0.2
			l-0.1-0.1l-0.1-0.1c-0.4,0-0.7,0.4-0.9,1.2c-0.1,0.3-0.9,0.4-0.9,0.6H56c0.1-0.1,0.1-0.1,0.2-0.1c0,0.2-0.5,0.8-1.6,2.1
			c-1,1.2-1.6,1.8-1.8,1.9c-0.1,0.4-0.3,0.9-0.8,1.7c-0.5,0.7-0.7,1.2-0.7,1.2c-0.8,0.8-1.5,1.8-1.7,2.6l-0.1,0.1
			c-0.1,0.1-0.1,0.2-0.2,0.2l-0.5,0.1v0.5c-0.8,0.5-1.7,1.7-2.7,3.5c-1,1.8-1.8,2.9-2.3,3.5V50L43.5,50c-0.6,0.4-0.8,1.2-1.2,1.5
			c0.1,0.5-1,1.8-1,2.5c0,0.1,0.2,0.4,0.2,0.5c-0.1,0.1-0.2,0.2-0.2,0.3s0.1,0.3,0.3,0.7c0.3-0.1,0.2-0.5,0.5-0.6
			c0.7-0.5,2.1-1.8,4.2-3.9s3.5-3.3,4.4-3.5c0.3-0.4,2.8-3.6,3.4-3.3l0.5-0.8c0.2-0.4,1.3-1,1.6-1.4c0.3-0.2,0.8-0.6,1.5-1.5
			c0.7-0.8,1.2-1.3,1.6-1.3h0.6c1,0,1.1,0,1.1,0.7c0,0.2,0.2,0.5,0.2,0.8L61,40.7l-0.1,0.1c0,0.2,0.2,0.4,0.2,0.5
			c0,0.8-1.2,2.2-1.3,2.8c-0.1,0.2-0.2,0.2-0.3,0.2l-0.1-0.1h-0.2c0,0.2,0.2,0.3,0.2,0.4c0,0.4-0.2,1-0.7,1.7
			c-0.4,0.7-0.6,1.1-0.6,1.2c0.1,0.7-0.5,2.2-0.5,2.8c0,0.3,0.4,1.1,0.4,1.4c0,0.1-0.2,0.6-0.2,0.8v0.2c0.2,0.3,0.5,0.5,0.5,0.8
			c0,0.1,0,0.2-0.1,0.2c0,0.6,0.8,0.8,1.3,1c0.1,0,0.8,0.1,1,0.1c0.7,0,1.7-0.2,3.1-0.8c1.4-0.5,2.4-0.8,2.9-0.8
			c0.2,0,0.7-0.6,1-0.5c0.4-0.4,1.5-1.1,3.4-2c0.8-0.4,2.7-2.1,3.2-2.4l0.7-0.5c0.5-0.2,0.8-0.5,0.9-0.7l0.8-0.5
			c0.5-0.3,0.9-0.5,1.2-0.5c0.2,0,0.3,0.1,0.3,0.2c0,0.8-1.2,1.5-1.5,2.1C75,50.2,73,51.7,71,53.2c-1.2,0.7-3.5,1.5-4.6,2.5
			c-0.7,0-1.2,0.2-1.5,0.5c-0.1-0.1-0.2-0.1-0.3-0.1c-0.3,0-0.5,0-0.5,0.1l-0.8,0.4H63c-0.1,0-0.3-0.1-0.4-0.1s-0.2,0.1-0.2,0.2
			l-0.1,0.2h-0.2c-0.2,0-0.8-0.1-1.1-0.1l-0.2,0.1c-0.2,0.2-0.9,0-1.1,0c-0.4,0-1.3-0.2-1.6-0.2l-0.3-0.4L57,55.9
			c-0.4-0.4-1.6-1.9-1.6-2.5c0-0.2,0.2-0.5,0.2-0.5c0-0.1-0.3-0.8-0.3-1v-0.3c0,0.2,0,0.2,0.1,0.2c0-0.1,0-0.2,0.1-0.4l-0.1-0.2
			c0-0.2,0.1-0.6,0.1-0.7v-0.4c-0.3-0.3-0.3-0.7,0-1.3v-0.2c0.1-0.2,0.2-0.7,0.6-1.4c0.4-0.7,0.5-1.2,0.5-1.2v-0.6
			c0-0.1-0.2-0.8-0.2-0.9c-0.4,0-1.5,1.4-1.8,1.4v-0.2h-0.2v0.2c0.1,0.2,0.1,0.2,0.2,0.2c0,0.2-0.2,0.4-0.5,0.5
			c-0.8,0.2-1.2,0.7-1.2,1.7c-0.6,0.8-3.1,2.3-3.7,3.6l-2.3,1.8c-1.3,1.2-2.1,1.7-2.2,1.8c0,0.1,0.2,0.3,0.2,0.4
			c0,0.2-0.1,0.2-0.2,0.3c-1,0.2-2.3,2.2-3.2,2.5h-0.2c-0.2,0-0.7,0.1-1,0.1c-0.8,0-2.1-0.6-2.1-1.3V56c0-0.4,0.2-0.9,0.8-1.6
			l0.8-1.1c0.1-0.6,0.5-1.5,1.2-2.6c0.7-1.2,1.2-1.8,1.2-2.2c0.2-0.2,1.2-1.5,2.8-3.7c1.6-2.2,2.5-3.5,2.5-3.6
			c0.4-0.4,0.6-0.7,0.6-0.9c0-0.1-0.1-0.2-0.3-0.4c0-0.2,0.2-0.4,0.4-0.6c0.1,0.1,0.2,0.1,0.3,0.1c0.2,0,0.4-0.1,0.4-0.2
			c0-0.1-0.2-0.2-0.2-0.2c0-0.2,0.5-1,1.5-2.5c1-1.5,1.6-2.3,1.7-2.4c0-0.2,0.2-0.5,0.2-0.5c0-0.7,0.3-1.1,0.9-1.1l1-1.8
			c0.5-0.2,1.2-1.7,1.8-2c0.2-0.5,0.9-1.5,2.1-2.9c1.2-1.5,1.8-2.2,2.2-2.2c0.1,0,0.2-0.1,0.2-0.2C60.5,22.5,61.9,20.7,64.5,18.1z
			 M50.3,48.4L50.3,48.4L50.3,48.4L50.3,48.4z M55.6,29.4L55.6,29.4L55.6,29.4z M56.1,28.6L56.1,28.6L56.1,28.6z M56.6,43l0.1-0.2
			C56.6,42.9,56.6,42.9,56.6,43L56.6,43z M60.3,41.9L60.3,41.9L60.3,41.9z"/>
		<path class="st1" d="M89.3,33.3c1.2,0,1.8,0.3,1.8,0.9l-0.1,0.2c0,0.3,0.5,0.8,0.5,1.1c0,0.2-0.2,0.5-0.2,0.8l0.1,0.2
			c0,0.2-0.4,0.5-0.3,0.8l-0.7,0.6c0.1,0.7-1.5,1.4-1.5,1.7v0.1c0.1,0.1,0.1,0.1,0.1,0.2c0,0.4-0.7,1.1-1,1.1l-0.5,0.6
			c-0.1,0.7-0.2,1.2-0.6,1.5c-0.6,0.3-0.9,0.5-0.9,0.6l0.1,0.2l-0.3,0.2c0.1,0.3-0.6,1.1-2.1,2.3c-1.4,1.2-2.3,1.9-2.7,2
			c-0.1,0.1-0.2,0.3-0.2,0.5c-0.2,0.2-1.3,0.8-1.3,1.5v0.1c-0.1,0-0.5-0.2-0.7-0.2c-0.2,0-0.2,0.2-0.2,0.8v0.1l0.3,0.8
			c0.1,0.4,1.8,1,1.8,1.2c0.2,0.4,0.5,0.7,0.8,0.9h0.1c0.1,0,0.2,0,0.2-0.1v-0.3h1.1v-0.1l0.1,0.1c0.3,0,0.6,0.1,0.8,0.1
			c0.2,0,0.2,0,0.3-0.1c0.1,0,0.2,0,0.3-0.1l0.2-0.1c0.2,0,0.5,0.2,0.8,0.2l0.1-0.1c0.1-0.1,0.1-0.1,0.2-0.1c0.1,0,0.2,0,0.2,0.1
			l0.5-0.2c0.1,0,0.4,0.2,0.5,0.2c0.2,0,0.5-0.5,0.8-0.5c0.1,0,0.3,0.2,0.4,0.2c0.2,0,1.1-0.5,1.4-0.5c-0.1,0-0.2,0-0.2-0.1
			c0-0.6,0.3-0.2,0.5-0.2l0.5-0.2c1.1-0.4,2.9-1.2,5.6-2.3c2.7-1.2,4.1-2,4.1-2.4c0.5-0.1,1.3-0.6,2.5-1.5c1.2-0.8,1.9-1.3,2.2-1.3
			c0.1,0,0.2,0,0.2,0.1l0.2,0.1c0.2,0,0.4-0.1,0.4-0.2c0-0.7,0.2-1,0.6-1h0.1l0.7,0.4V44c0,0.4-0.1,0.6-0.2,0.6h-0.5l-0.2,0.1
			c-0.4,0.2-0.2,0.4-0.2,0.5v0.2c0,0.2-0.1,0.2-0.2,0.2h-0.7l-0.2,0.1v0.4l-0.8,0.5c-0.1,0-0.2,0-0.2-0.1h-0.1
			c-0.5,0-0.2,0.5-0.4,0.6c-0.3,0.2-0.8,0.8-0.8,0.8l-0.8,0.4c-0.9,0.5-1.6,0.8-2.2,1c0,0.2-0.5,0.5-1.3,1c-0.8,0.5-1.5,0.8-1.8,0.8
			l-0.2,0.1c0,0.1,0,0.1,0,0.1l0.1,0.2l-0.8,0.5h-0.1l-0.2-0.1h-0.1c-0.4,0-1.8,0.9-2.2,0.9l-0.4,0.4c-0.6,0.1-1.9,1-2.2,1
			c-0.3,0-0.5-0.1-0.5-0.3c0-0.1,0-0.1,0-0.1l0.1-0.2l-0.2-0.2c-0.1,0.1-0.2,0.2-0.2,0.4h0.1c0,0.2,0,0.2,0.1,0.2
			c0,0.1-0.7,0.5-0.9,0.5c-0.1,0-0.3-0.1-0.4-0.1c-0.5,0-1.7,0.7-2.2,0.7h-0.2L85.7,55c-0.3,0-0.9,0.2-1.2,0.2
			c-0.1,0-0.5-0.1-0.5-0.1h-0.2c-0.1,0-0.3,0.2-0.4,0.2c-0.5,0-1.8-0.4-2.2-0.4h-0.3h-0.5c-0.2,0-0.7-0.3-1.5-0.9
			c-0.8-0.6-1.3-1.1-1.5-1.3l-0.1-0.2l0.1-0.1c0.1-0.1,0.1-0.1,0.1-0.2c0-0.2-1-0.7-1-0.8c0-0.7-0.1-1-0.2-1L76,50.7
			c-0.1-0.1-0.2-0.2-0.2-0.3c0-0.1,0.2-0.5,0.2-0.7v-0.2C76,49.5,76,49.5,76,49.4c0-0.1,0.1-0.2,0.2-0.3c0.4-0.2,0.4-0.2,0-0.5
			c-0.9-0.1,0.3-1,0.5-1.5c-0.2-0.1-0.2-0.2-0.2-0.3c0-0.6,1.2-2.1,1.2-2.6c0-0.1-0.1-0.2-0.1-0.3c0-0.3,1.1-0.2,1.2-0.5
			c-0.2-0.2-0.4-0.4-0.4-0.6c0-0.2,1.2-0.8,0.9-1.2c0-0.1-0.2-0.2-0.2-0.2s0.1-0.2,0.2-0.2c0.5,0,0.9-0.4,1.4-1.2
			c0.5-0.8,0.9-1.2,1.5-1.2c0.1,0,0.2,0,0.2,0.1c0.1-0.1,0.1-0.2,0.1-0.2v-0.2c0,0,0,0,0,0.1l-0.1-0.2c-0.2-0.5,3-2.5,3.3-3.2
			C87.4,33.9,88.7,33.3,89.3,33.3z M76.8,47.6L76.8,47.6L76.8,47.6z M77.7,48.3L77.7,48.3L77.7,48.3z M83.2,40L83.2,40
			c0.1,0.2-0.4,0.8-1.3,1.8c-0.9,1-1.5,1.5-1.5,1.5v0.3c-0.4,0.2-1.6,1.8-1.6,2.2c0.2,0.2,0.1,0.5-0.2,0.8l0.1,0.1v0.2
			c0,0.7-0.8,0.8-0.2,1.2c0.3,0.2,0.2,0.5,1.8-1.1c1.8-1.6,4.1-4.1,4.4-4.4c0.8-0.6,1.5-1.2,1.8-1.6l0.1-0.8c0-0.1,0-0.1,0.1-0.1
			h0.1l0.1,0.1c0.1,0,0.1-0.1,0.1-0.2c0.1-0.2,0.2-0.3,0.3-0.2c0-0.7,0.8-1,1.1-1.5c0-0.4,0-0.7,0.1-0.8c0.5-0.2,0.8-0.5,0.8-0.6
			c0-0.3-0.5-0.7-0.2-0.7h0.1c0.1,0.1,0.1,0.1,0.2,0.1c0.2-0.1,0.3-0.2,0.4-0.2c0-0.1-0.1-0.2-0.2-0.2c-0.5,0-1.1,0.8-1.3,0.8h-0.5
			c-0.1,0-0.2,0.4-0.3,0.4c-1,0.3-2,0.9-2.8,1.8C83.7,39.3,82.7,39.9,83.2,40z M80.8,40.8L80.8,40.8L80.8,40.8z M81,41.4
			c0.1,0,0.1-0.2,0-0.2c-0.1,0-0.2,0.1-0.2,0.2L81,41.4z M81.6,40.1L81.6,40.1L81.6,40.1L81.6,40.1L81.6,40.1z M81.9,39.7L81.9,39.7
			L81.9,39.7L81.9,39.7L81.9,39.7z M82.1,46.3L82.1,46.3c0.1-0.2,0-0.3-0.1-0.3C82,46,82,46,82,46.1C82,46.3,82,46.3,82.1,46.3z
			 M83.6,44.5L83.6,44.5c0.2,0.1,0.3,0,0.4-0.2c-0.1-0.1-0.2-0.2-0.2-0.2C83.6,44.2,83.5,44.3,83.6,44.5L83.6,44.5z M84.5,43.8
			c0-0.2-0.1-0.3-0.2-0.3c-0.1,0-0.2,0.5,0.2,0.5L84.5,43.8z M85.4,36.3c0.1,0,0.2-0.1,0.2-0.2l-0.2-0.1c-0.2,0-0.2,0-0.2,0.1
			C85.2,36.2,85.3,36.3,85.4,36.3z M86.2,36.8c0,0.1,0,0.2,0.1,0.2C86.3,36.9,86.3,36.8,86.2,36.8z M86.5,35.1l-0.1,0.2
			c0,0.2,0.1,0.2,0.3,0.2l0.3-0.1c0.2,0,0.2,0,0.3-0.1c0-0.2,0-0.3-0.1-0.3h-0.4l-0.1,0.2c0,0.1,0,0.1-0.1,0.1
			C86.7,35.2,86.6,35.1,86.5,35.1z M86.8,40.6v0.2c0,0.1,0.3,0.2,0.3-0.2c0-0.1-0.1-0.2-0.2-0.2h-0.1L86.8,40.6z M87.6,34.6l0.2,0.2
			h0.1c0.1,0,0.2-0.2,0.2-0.5C87.7,34.4,87.6,34.5,87.6,34.6L87.6,34.6z M88.1,34.3L88.1,34.3L88.1,34.3L88.1,34.3z M88.2,35.9
			c0.4,0,0.4-0.5,0.1-0.5c-0.1,0-0.2,0.1-0.2,0.3C88.1,35.9,88.1,35.9,88.2,35.9z M88.9,34.6c0.2,0.2,0,0.2,0,0.3
			c0,0.2,0.1,0.2,0.3,0.2c0-0.1,0-0.1-0.1-0.2l-0.1-0.2l0.1-0.1v-0.2L89,34.3C88.9,34.3,88.8,34.4,88.9,34.6L88.9,34.6z M89.5,37.9
			c0-0.2-0.1-0.2-0.2-0.2C89.4,37.8,89.4,37.9,89.5,37.9z M89.9,37c0.1,0,0.2-0.1,0.5-0.3c-0.1-0.1-0.2-0.2-0.2-0.3h-0.1
			c-0.2,0-0.4,0.1-0.4,0.3C89.7,36.9,89.8,36.9,89.9,37z"/>
	</g>
</g>
<g>
	<path class="st1" d="M251.4,121c0,0-1.5,0.7-1.8,0.7c-0.3,0-0.6-0.1-0.7-0.1c-0.5,0.3-0.6-0.2-1.5-0.1l-0.1,0.1
		c-0.1,0-0.5-0.2-0.6-0.2l-2.1,0c-0.9,0-1.1,0.2-1.5,0l-0.8,0l0,0c-0.3,0-1,0.1-1.3,0.1l-1.9,0c-0.1,0-0.2,0-0.3-0.1l-0.4,0
		c-0.5,0.1-1.1,0-2.1-0.2c-0.3,0-0.7,0.1-0.9,0.1c-0.7,0-2.6-0.3-3.6-0.2c-0.1,0-0.2,0-0.3,0l-1.7,0c-0.1,0-0.2-0.1-0.4-0.1
		c-0.1,0-0.5,0.1-0.6,0.1c-0.4,0-1.2-0.2-1.5-0.2l-0.2,0l-0.2,0l-0.2,0c-0.5-0.1-1-0.2-1.5-0.2c-0.8,0.4-0.7-0.3-2.3-0.1l-0.4,0.1
		c-0.1,0-0.2,0-0.3,0l-0.2-0.1c-0.3,0-0.5,0.2-0.6,0.2c-0.3,0-0.9-0.2-1.4-0.2c-0.1,0-0.2,0-0.3,0.1l-0.8,0c-0.3,0-0.5,0.1-0.7,0.1
		l-0.1,0l-0.8-0.2l-0.2,0c-0.4,0-1.3,0.2-1.7,0.2c-0.3,0-0.6-0.2-1.1-0.2c-0.1,0-0.5,0.1-0.6,0.1l-0.2,0c-0.4-0.2-0.3,0.2-1.2,0.2
		c-0.4,0-1.3-0.2-1.7-0.2c-0.1,0-0.5,0-0.6,0c-1.1-0.1-1.7-0.2-2.9,0c-0.3,0-0.5-0.1-0.9-0.1l-0.2,0c-0.3,0.1-0.4-0.1-1.2-0.1
		c-0.1,0-0.6,0.1-1,0.1l-0.2,0l-0.2-0.1c-0.3,0.1-0.7,0.1-1.4-0.1c-0.4,0-1.5,0.1-1.8,0.1c-0.1,0-0.3-0.1-0.5-0.1
		c-0.4,0.1-1,0.1-1.5,0.1c-0.4,0-1.5-0.1-1.8-0.1l-0.6-0.1c-0.3,0-1,0.1-1.4,0.1l-0.6,0l-0.4,0l-0.1,0c-0.1,0-0.3,0-0.4,0.1l-1.6,0
		c-0.5,0-1,0-1.2-0.1l-1.2,0c-0.1,0-0.3,0-0.4,0c-1.6,0-2.8-0.1-3.3-0.2l-6.9,0l-0.3,0l-1.4,0c-1.3,0.2-3,0.3-5.1,0.2
		c-0.1,0-0.2,0-0.4,0c-0.1,0-0.4-0.1-0.7-0.1c-0.4,0-1.6,0.3-2.1,0.3c-1,0-1.1-0.1-1.1-0.4c0-0.1-0.1-0.1-0.2-0.2l-0.2-0.1
		c0-0.1,1.7-0.9,2-0.9c0.1,0,1.1,0.3,1.4,0.3c0.3,0,0.7-0.2,0.9-0.2l0,0.1c0.1,0.1,0.3,0.1,0.5,0.1c0.5,0,0.8,0,1.1,0
		c0.8,0,2.8-0.2,3.5-0.2c0.7,0.2,1.7-0.3,2.1-0.1c0.8-0.1,1.6-0.1,3,0c0.3,0,1,0,1.4,0l0.9,0c0.1,0,0.2,0,0.2,0.1l0.1,0
		c0.1,0,0.4-0.1,0.5-0.1c0.1,0,0.2,0,0.3,0l2.2,0c1.1,0.2,2.3,0.3,3.8,0.3l1.4,0c0.1,0,0.2,0,0.3,0c0.2,0,0.3,0,0.4,0l0.4,0
		c0.3,0,1.3-0.1,1.8,0c0.1,0,0.2,0,0.3,0c0.2,0,0.3,0,0.4,0c0.1,0,0.2,0,0.3,0l0.2,0c0.4,0,1.2,0.2,1.4,0.1c0.6,0,1.1,0,1.2,0l1.4,0
		c0.1,0,0.2,0,0.4,0c0.1,0,0.7,0,0.9,0c0.7,0,2.3,0.1,2.9,0.1l1.2,0c0.1,0,0.4-0.1,0.5-0.1c0.8,0.1,1.7,0.1,2.5,0
		c0.1,0,0.5,0.1,0.6,0.1l0.1,0c0.2,0,0.3,0,0.4,0l1.7,0c0.1,0,0.2,0,0.4,0l1.1,0l1.3,0l0.2,0c0.1,0,0.5,0.1,0.6,0.1
		c0.2,0,0.4,0,0.5,0c0.5,0,1.8-0.1,2.2-0.1c0.5,0,1.7,0.1,2.1,0.1c0.3,0,0.9,0,1.2,0c0.4,0.2,1.2,0,1.5,0.1l0.2,0c0.4,0,0.8,0,1.3,0
		l0.1,0l0.4,0l0.3,0l1.2,0c0.4,0.1,1,0,1.3,0l0.3,0l0,0c0.1,0,0.1,0.1,0.1,0.1l0.1,0c0.1,0,0.1-0.1,0.2-0.1l0.2,0c0.1,0,0.1,0,0.2,0
		c1.3-0.2,1.4,0.1,2.1,0l0.4,0c0.3,0,0.4,0,0.5,0.1l0.3,0l0,0l0.1,0l0.3,0c0.1,0,0.1,0,0.2,0l0.2,0c0.3,0,1,0.1,1.1,0.1l2.1,0
		c0.1,0,0.4,0.1,0.7,0.1c0.1,0,0.4-0.1,0.7-0.1l1.1,0c0.4,0,1.5,0.1,1.9,0.1c0.3,0,0.5-0.1,0.6-0.1c0.6,0,0.5,0.1,1.3,0
		c0.4,0,0.7,0.1,1.2,0.1l0.4,0c0.1,0,0.2-0.1,0.4-0.1c0.1,0,0.6,0.1,0.9,0.1c0.1,0,0.4-0.1,0.5-0.1c0.3,0,1.3,0.1,1.7,0.1l0.9,0
		c0.4,0,1.5-0.2,1.9-0.2c0.1,0,0.3-0.1,0.4-0.1c0.3,0,0.4,0,0.4,0.2c0,0-0.1,0.1-0.2,0.2C250.6,120,251.4,120.7,251.4,121z
		 M217.2,119.5c0,0,0.1,0.1,0.2,0.1c0.1,0,0.1,0,0.2,0c0,0-0.1-0.1-0.3-0.1L217.2,119.5z M173.9,119.9c0,0.1,0.2,0.1,0.5,0.1
		c0-0.1-0.1-0.1-0.3-0.1C174,119.9,173.9,119.9,173.9,119.9z M175.1,120.1c0.1,0,0.2,0,0.2-0.1c-0.1,0-0.3,0-0.6,0.1
		C174.7,120.1,175,120.1,175.1,120.1z"/>
</g>
</svg>
