<?xml version="1.0" encoding="utf-8"?>
<!-- Generator: Adobe Illustrator 22.0.0, SVG Export Plug-In . SVG Version: 6.00 Build 0)  -->
<svg version="1.1" id="Layer_1" xmlns="http://www.w3.org/2000/svg" xmlns:xlink="http://www.w3.org/1999/xlink" x="0px" y="0px"
	 width="404.2px" height="10.1px" viewBox="0 0 404.2 10.1" style="enable-background:new 0 0 404.2 10.1;" xml:space="preserve">
<style type="text/css">
	.st0{fill:#80A7CE;}
</style>
<g>
	<path class="st0" d="M404.2,7.4c0,0.2-7.1,2.8-8.6,2.7c-1.5,0-3-0.4-3.5-0.4c-2.5,1.1-3-0.8-7-0.2l-0.5,0.2c-0.5,0-2.5-0.8-3-0.8
		l-10.1,0c-4,0-5,0.9-7.1,0.2l-4,0l0-0.2c-1.5,0-4.5,0.3-6.1,0.3l-9.1,0c-0.5,0-1-0.2-1.5-0.4l-2,0c-2.5,0.4-5,0.2-10.1-0.6
		c-1.5,0-3.5,0.5-4,0.5c-3.5,0-12.6-1-17.1-0.8c-0.5-0.2-1-0.2-1.5-0.2l-8.1,0c-0.5-0.2-1-0.4-2-0.4c-0.5,0-2.5,0.4-3,0.4
		c-2,0-5.6-0.6-7.1-0.6l-1,0l-1,0.2l-1,0c-2.5-0.6-4.5-0.9-7.1-1c-4,1.5-3.5-1.1-11.1-0.2l-2,0.4c-0.5,0-1,0-1.5-0.2l-1-0.4
		c-1.5,0-2.5,0.7-3,0.7c-1.5,0-4.5-0.8-6.5-0.8c-0.5,0-1,0.2-1.5,0.4l-4,0c-1.5,0.2-2.5,0.4-3.5,0.4l-0.5,0l-4-0.8l-1-0.2
		c-2,0-6,0.7-8.1,0.7c-1.5,0-3-0.9-5-0.9c-0.5,0-2.5,0.4-3,0.4l-1,0c-2-0.8-1.5,0.7-5.5,0.7c-2,0-6-0.8-8.1-0.8
		c-0.5,0-2.5,0.2-3,0.2c-5-0.6-8.1-0.6-13.6-0.1c-1.5,0-2.5-0.2-4-0.2l-1,0.2c-1.5,0.6-2-0.4-5.5-0.4c-0.5,0-3,0.5-4.5,0.5l-1,0
		l-1-0.2c-1.5,0.6-3.5,0.4-6.5-0.4c-2,0-7.1,0.3-8.6,0.3c-0.5-0.2-1.5-0.4-2.5-0.4c-2,0.4-4.5,0.5-7.1,0.5c-2,0-7-0.4-8.6-0.4
		l-3-0.6c-1.5,0-4.5,0.3-6.6,0.3l-3,0l-2-0.2l-0.5,0c-0.5,0-1.5,0.2-2,0.4l-7.6,0c-2.5,0-4.5,0-5.5-0.2l-5.5,0
		c-0.5,0.2-1.5,0.2-2,0.2c-7.6,0-13.1-0.2-15.6-0.6L54.9,4.3l-1.5,0.2l-6.5,0.2c-6,0.9-14.1,1-24.2,0.8c-0.5,0.2-1,0.2-2,0.2
		c-0.5,0-2-0.4-3.5-0.4c-2,0-7.6,1.3-10.1,1.2C2.5,6.5,2,6.3,2,5c0-0.2-0.5-0.4-1-0.7L0,3.7c0-0.5,8.1-3.3,9.6-3.3
		c0.5,0,5,1.1,6.5,1.1c1.5,0,3.6-0.7,4-0.7l0,0.2c0.5,0.4,1.5,0.6,2.5,0.6c2.5,0,4,0,5-0.2c4,0,13.1-0.7,16.6-0.7
		c3.5,0.8,8.1-1.1,10.1-0.3c4-0.5,7.6-0.5,14.1-0.1c1.5,0,4.5-0.2,6.5-0.2l4,0c0.5,0,1,0,1,0.2l0.5,0c0.5,0,2-0.4,2.5-0.4
		c0.5,0,1,0,1.5,0.2l10.6,0c5,0.6,11.1,1,18.1,1l6.5,0c0.5-0.2,1-0.2,1.5-0.2c1,0,1.5,0,2,0.2l2,0c1.5,0,6-0.3,8.6-0.1
		c0.5-0.2,1-0.2,1.5-0.2c1,0,1.5,0,2,0.2c0.5-0.2,1-0.2,1.5-0.2l1,0c2,0,5.5,0.6,6.5,0.2c3,0,5,0,5.5-0.2l6.6,0c0.5,0.2,1,0.2,2,0.2
		c0.5,0,3.5-0.2,4-0.2c3.5,0,11.1,0.4,13.6,0.4l5.5,0c0.5,0,2-0.4,2.5-0.4c4,0.4,8.1,0.4,12.1,0.1c0.5,0,2.5,0.4,3,0.4l0.5,0
		c1-0.2,1.5-0.2,2-0.2l8.1,0c0.5-0.2,1-0.2,2-0.2l5,0l6,0l1-0.2c0.5,0,2.5,0.4,3,0.4c1,0,2,0,2.5-0.2c2.5,0,8.6-0.5,10.6-0.5
		c2.5,0,8.1,0.4,10.1,0.4c1.5,0,4-0.2,5.5-0.2c2,0.7,5.6-0.2,7.1,0.2l1,0.2c2,0,4-0.2,6-0.2l0.5,0l2-0.2l1.5,0l5.5,0
		c2,0.4,4.5,0,6.1,0l1.5,0l0,0.2c0.5,0.2,0.5,0.4,0.5,0.6l0.5-0.2c0.5-0.2,0.5-0.4,1-0.4l1,0c0.5,0.2,0.5,0.2,1,0.2
		c6-0.7,6.5,0.4,10.1-0.1l2,0c1.5,0.2,2,0.2,2.5,0.2l1.5,0l0-0.2l0.5,0.2l1.5,0c0.5,0,0.5,0,1-0.2l1,0c1.5,0,4.5,0.4,5,0.4l10.1,0
		c0.5,0,2,0.4,3.5,0.4c0.5,0,2-0.4,3.5-0.4l5,0c2,0,7.1,0.4,9.1,0.4c1.5,0,2.5-0.4,3-0.4c3,0,2.5,0.4,6,0c2,0,3.5,0.2,5.5,0.2l2,0
		c0.5-0.2,1-0.4,2-0.4c0.5,0,3,0.4,4.5,0.4c0.5,0,2-0.5,2.5-0.5c1.5,0,6,0.4,8.1,0.4l4,0c2,0,7-0.7,9.1-0.7c0.5-0.2,1.5-0.4,2-0.4
		c1.5,0,2,0.2,2,0.8c0,0.2-0.5,0.4-1,0.9C400.1,3.4,404.2,6.1,404.2,7.4z M241.4,1.6c0,0.2,0.5,0.4,1,0.4c0.5,0,0.5,0,1-0.2
		c0-0.2-0.5-0.4-1.5-0.4L241.4,1.6z M35.3,2.9c0,0.2,1,0.4,2.5,0.4c0-0.4-0.5-0.6-1.5-0.6C35.8,2.8,35.3,2.8,35.3,2.9z M40.8,3.7
		c0.5,0,1-0.2,1-0.5c-0.5,0-1.5,0.2-3,0.4C39.3,3.5,40.3,3.7,40.8,3.7z"/>
</g>
</svg>
