<?xml version="1.0" encoding="utf-8"?>
<!-- Generator: Adobe Illustrator 22.0.0, SVG Export Plug-In . SVG Version: 6.00 Build 0)  -->
<svg version="1.1" id="Layer_1" xmlns="http://www.w3.org/2000/svg" xmlns:xlink="http://www.w3.org/1999/xlink" x="0px" y="0px"
	 width="404.2px" height="10.1px" viewBox="0 0 404.2 10.1" style="enable-background:new 0 0 404.2 10.1;" xml:space="preserve">
<style type="text/css">
	.st0{fill:#80A7CE;}
</style>
<g>
	<path class="st0" d="M4.5,2.9C4,2.3,3.5,2.2,3.5,2c0-0.6,0.5-0.7,2-0.8c0.5,0,1.5,0.2,2,0.4c2,0,7.1,0.7,9.1,0.7l4,0
		c2,0,6.5-0.4,8.1-0.4c0.5,0,2,0.5,2.5,0.5c1.5,0,4-0.4,4.5-0.4c1,0,1.5,0.2,2,0.4l2,0c2,0,3.5-0.2,5.5-0.2c3.5,0.4,3,0,6,0
		c0.5,0,1.5,0.4,3,0.4c2,0,7.1-0.4,9.1-0.4l5,0c1.5,0,3,0.4,3.5,0.4c1.5,0,3-0.4,3.5-0.4l10.1,0c0.5,0,3.5-0.4,5-0.4l1,0
		c0.5,0.2,0.5,0.2,1,0.2l1.5,0l0.5-0.2l0,0.2l1.5,0c0.5,0,1,0,2.5-0.2l2,0c3.5,0.5,4-0.6,10.1,0.1c0.5,0,0.5,0,1-0.2l1,0
		c0.5,0,0.5,0.2,1,0.4l0.5,0.2c0-0.2,0-0.4,0.5-0.6l0-0.2l1.5,0c1.5,0,4,0.3,6.1,0l5.5,0l1.5,0l2,0.2l0.5,0c2,0,4,0.2,6,0.2l1-0.2
		c1.5-0.4,5,0.5,7.1-0.2c1.5,0,4,0.2,5.5,0.2c2,0,7.5-0.4,10.1-0.4c2,0,8.1,0.5,10.6,0.5c0.5,0.2,1.5,0.2,2.5,0.2
		c0.5,0,2.5-0.4,3-0.4l1,0.2l6,0l5,0c1,0,1.5,0,2,0.2l8.1,0c0.5,0,1,0,2,0.2l0.5,0c0.5,0,2.5-0.4,3-0.4c4,0.3,8.1,0.3,12.1-0.1
		c0.5,0,2,0.4,2.5,0.4l5.5,0c2.5,0,10.1-0.4,13.6-0.4c0.5,0,3.5,0.2,4,0.2c1,0,1.5,0,2-0.2l6.6,0c0.5,0.2,2.5,0.2,5.5,0.2
		c1,0.4,4.5-0.2,6.5-0.2l1,0c0.5,0,1,0,1.5,0.2c0.5-0.2,1-0.2,2-0.2c0.5,0,1,0,1.5,0.2c2.5-0.2,7,0.2,8.6,0.1l2,0
		c0.5-0.2,1-0.2,2-0.2c0.5,0,1,0,1.5,0.2l6.5,0c7.1,0,13.1-0.4,18.1-1l10.6,0C320,0,320.5,0,321,0c0.5,0,2,0.4,2.5,0.4l0.5,0
		c0-0.2,0.5-0.2,1-0.2l4,0c2,0,5,0.2,6.5,0.2c6.5-0.4,10.1-0.4,14.1,0.1c2-0.8,6.6,1.1,10.1,0.3c3.5,0,12.6,0.7,16.6,0.7
		c1,0.2,2.5,0.2,5,0.2c1,0,2-0.2,2.5-0.6l0-0.2c0.5,0,2.5,0.7,4,0.7c1.5,0,6-1.1,6.5-1.1c1.5,0,9.6,2.7,9.6,3.3l-1,0.6
		c-0.5,0.4-1,0.6-1,0.7c0,1.3-0.5,1.5-5,1.5c-2.5,0-8.1-1.3-10.1-1.2c-1.5,0-3,0.4-3.5,0.4c-1,0-1.5,0-2-0.2
		c-10.1,0.2-18.1,0.1-24.2-0.8l-6.5-0.2l-1.5-0.2l-32.7,0.1c-2.5,0.4-8.1,0.6-15.6,0.6c-0.5,0-1.5,0-2-0.2l-5.5,0
		c-1,0.2-3,0.2-5.5,0.2l-7.6,0c-0.5-0.2-1.5-0.4-2-0.4l-0.5,0l-2,0.2l-3,0c-2,0-5-0.3-6.6-0.3l-3,0.6c-1.5,0-6.5,0.4-8.6,0.4
		c-2.5,0-5-0.2-7.1-0.5c-1,0-2,0.2-2.5,0.4c-1.5,0-6.5-0.3-8.6-0.3c-3,0.8-5,0.9-6.5,0.4l-1,0.2l-1,0c-1.5,0-4-0.5-4.5-0.5
		c-3.5,0-4,0.9-5.5,0.4l-1-0.2c-1.5,0-2.5,0.2-4,0.2c-5.5-0.5-8.6-0.5-13.6,0.1c-0.5,0-2.5-0.2-3-0.2c-2,0-6,0.8-8.1,0.8
		c-4,0-3.5-1.5-5.5-0.7l-1,0c-0.5,0-2.5-0.4-3-0.4c-2,0-3.5,0.9-5,0.9c-2,0-6.1-0.7-8.1-0.7l-1,0.2l-4,0.8l-0.5,0
		c-1,0-2-0.2-3.5-0.4l-4,0c-0.5-0.2-1-0.4-1.5-0.4c-2,0-5,0.8-6.5,0.8c-0.5,0-1.5-0.7-3-0.7l-1,0.4c-0.5,0.2-1,0.2-1.5,0.2l-2-0.4
		c-7.6-0.9-7.1,1.7-11.1,0.2c-2.5,0-4.5,0.4-7.1,1l-1,0l-1-0.2l-1,0c-1.5,0-5,0.6-7.1,0.6c-0.5,0-2.5-0.4-3-0.4c-1,0-1.5,0.2-2,0.4
		l-8.1,0c-0.5,0-1,0-1.5,0.2c-4.5-0.2-13.6,0.8-17.1,0.8c-0.5,0-2.5-0.5-4-0.5c-5,0.8-7.6,1-10.1,0.6l-2,0c-0.5,0.2-1,0.4-1.5,0.4
		l-9.1,0c-1.5,0-4.5-0.3-6.1-0.3l0,0.2l-4,0c-2,0.8-3-0.2-7.1-0.2l-10.1,0c-0.5,0-2.5,0.8-3,0.8l-0.5-0.2c-4-0.5-4.5,1.3-7,0.2
		c-0.5,0-2,0.4-3.5,0.4C7.1,10.1,0,7.5,0,7.4C0,6.1,4,3.4,4.5,2.9z M162.3,1.5c-1,0-1.5,0.2-1.5,0.4c0.5,0.2,0.5,0.2,1,0.2
		c0.5,0,1-0.2,1-0.4L162.3,1.5z M367.9,2.8c-1,0-1.5,0.2-1.5,0.6c1.5,0,2.5-0.2,2.5-0.4C368.9,2.8,368.4,2.8,367.9,2.8z M365.3,3.5
		c-1.5-0.2-2.5-0.4-3-0.4c0,0.4,0.5,0.5,1,0.5C363.8,3.7,364.8,3.5,365.3,3.5z"/>
</g>
</svg>
